<?xml version="1.0" encoding="UTF-8"?>
<svg version="1.1" xmlns="http://www.w3.org/2000/svg" width="279" height="180">
<path d="M0 0 C0.66 0.66 1.32 1.32 2 2 C3.88435153 2.27736701 3.88435153 2.27736701 6.05078125 2.1953125 C7.30217896 2.18540283 7.30217896 2.18540283 8.57885742 2.17529297 C9.48095947 2.15869629 10.38306152 2.14209961 11.3125 2.125 C12.69949097 2.11364014 12.69949097 2.11364014 14.11450195 2.10205078 C17.07652085 2.07755683 20.03815637 2.04029719 23 2 C26.89582272 1.94699561 30.79145384 1.90690976 34.6875 1.875 C35.58960205 1.85840332 36.4917041 1.84180664 37.42114258 1.82470703 C38.25540771 1.81810059 39.08967285 1.81149414 39.94921875 1.8046875 C40.68487061 1.79421387 41.42052246 1.78374023 42.1784668 1.77294922 C44 2 44 2 46 4 C46.45264973 5.9040492 46.83760746 7.82441688 47.1875 9.75 C49.09132104 18.53686632 52.93830931 26.21946541 57.78125 33.78125 C58.1834375 34.5134375 58.585625 35.245625 59 36 C58.505 36.99 58.505 36.99 58 38 C57.34 38 56.68 38 56 38 C55.66669678 38.82226074 55.66669678 38.82226074 55.32666016 39.66113281 C53.59300021 42.71753 51.26246275 44.98498952 48.7734375 47.421875 C48.26575836 47.92672424 47.75807922 48.43157349 47.23501587 48.95172119 C45.61966158 50.55592096 43.99747791 52.15300856 42.375 53.75 C41.27558302 54.83938107 40.17661941 55.9292199 39.078125 57.01953125 C36.3906398 59.68501885 33.69700979 62.34415143 31 65 C31.99 65.99 31.99 65.99 33 67 C33.12375 66.38125 33.2475 65.7625 33.375 65.125 C34 63 34 63 36 61 C36.969375 60.690625 37.93875 60.38125 38.9375 60.0625 C41.9228182 59.02677736 42.94910205 58.25598774 45 56 C45.66 56 46.32 56 47 56 C47 55.34 47 54.68 47 54 C48.46875 52.5546875 48.46875 52.5546875 50.5 50.875 C53.46677361 48.35742098 56.27574249 45.77831024 59 43 C62.27595877 39.67234958 65.68802267 36.57473115 69.23828125 33.54296875 C69.81964844 33.03378906 70.40101562 32.52460937 71 32 C71.59167969 31.52175781 72.18335937 31.04351562 72.79296875 30.55078125 C74.21837881 29.07541079 74.21837881 29.07541079 73.8671875 27.09375 C72.86490256 24.67381878 71.58309488 22.67626102 70.125 20.5 C66.67920617 14.95028397 65.24665751 9.36451467 64 3 C67.465 2.505 67.465 2.505 71 2 C74.76501305 9.20104439 74.76501305 9.20104439 75.9375 13.1875 C77.27749314 16.73454066 79.26691442 18.39403468 82 21 C82.744699 22.13579992 83.47314576 23.282374 84.1875 24.4375 C88.99197135 31.35051677 97.946937 35.27252907 106 37 C119.83879659 39.09150578 131.25655339 36.75008315 143 29 C144.39899923 27.04536987 145.74083753 25.04750767 147 23 C148.7109375 21.59375 148.7109375 21.59375 150.375 20.5 C155.0375487 16.76996104 156.65772393 11.45062389 158.73828125 6.046875 C160 3 160 3 162 1 C164.625 1.375 164.625 1.375 167 2 C166.52561495 11.80395767 162.61138558 19.10249437 157 27 C158.38629244 30.12324544 159.99511571 32.24190707 162.4140625 34.64453125 C163.09339844 35.32193359 163.77273437 35.99933594 164.47265625 36.69726562 C165.18292969 37.39529297 165.89320313 38.09332031 166.625 38.8125 C167.65560547 39.84213867 167.65560547 39.84213867 168.70703125 40.89257812 C172.76059211 44.91191568 176.92958462 48.7404933 181.25 52.47045898 C183.31535925 54.27563137 185.26663718 56.16727627 187.1875 58.125 C188.17943359 59.12466797 188.17943359 59.12466797 189.19140625 60.14453125 C190.68930088 61.6812482 192.16076549 63.24367731 193.625 64.8125 C196.2288267 67.21076143 198.77477484 68.57490051 202 70 C201.71555289 64.52598752 198.50232239 62.06369432 194.7421875 58.52734375 C193.4647726 57.2858805 192.18743104 56.04434178 190.91015625 54.80273438 C188.88778425 52.86144456 186.861372 50.92450567 184.83251953 48.98999023 C182.87539511 47.11699988 180.93342589 45.22927231 178.9921875 43.33984375 C178.37769745 42.76370834 177.7632074 42.18757294 177.13009644 41.59397888 C175.44091797 39.94506836 175.44091797 39.94506836 173 37 C173.45876516 33.52416854 175.07674439 30.88950216 176.8125 27.875 C181.28168452 19.81546341 184.24937998 12.04487009 186 3 C190.65708342 1.8016793 195.11259821 1.92256046 199.87890625 2.0078125 C201.62173905 2.02532114 203.36457795 2.04223015 205.10742188 2.05859375 C207.84188817 2.08960291 210.57604779 2.12522871 213.31030273 2.17138672 C215.95820975 2.21370758 218.60575364 2.23715341 221.25390625 2.2578125 C222.47902672 2.28574387 222.47902672 2.28574387 223.72889709 2.3142395 C228.24086035 2.33462967 230.61041258 1.97826559 234 -1 C237.625 -0.875 237.625 -0.875 241 0 C243.33043558 3.49565336 243.58763244 4.8865729 243 9 C240.875 11.4375 240.875 11.4375 238 13 C234.27293127 12.85384044 232.65788293 12.65788293 230 10 C227.13563176 9.75418157 224.3609686 9.62630619 221.4921875 9.5859375 C220.65156769 9.56657135 219.81094788 9.5472052 218.94485474 9.5272522 C216.25500697 9.46738342 213.56511657 9.42104229 210.875 9.375 C209.05336656 9.3368269 207.2317513 9.29777556 205.41015625 9.2578125 C200.94025148 9.16167602 196.47026221 9.07767231 192 9 C191.82114258 9.79156494 191.64228516 10.58312988 191.45800781 11.39868164 C189.81159057 18.3757208 187.6699894 24.07751854 184.109375 30.30859375 C182.76013931 33.58191555 182.90990127 34.66044761 184 38 C186.87476147 41.62749198 190.17905306 44.83763371 193.46264648 48.09399414 C195.05081306 49.67585943 196.61051607 51.28241587 198.16992188 52.89257812 C203.42000355 58.20511725 207.36500127 61.91432966 215 63 C217 66 217 66 216.8125 69.5 C215.99321626 73.02922225 215.5603063 73.73644079 213 76 C213.37705078 77.10408203 213.37705078 77.10408203 213.76171875 78.23046875 C216.25640598 86.19873132 216.25640598 86.19873132 215 90.125 C212.48994086 92.47818044 211.46072462 93.07865283 208 93 C205.52572448 91.84569436 203.3265223 90.44858935 201 89 C200.34 89 199.68 89 199 89 C198.236875 89.825 197.47375 90.65 196.6875 91.5 C194 94 194 94 191.4375 94.5625 C188.15292066 93.80452015 187.03808318 92.67059176 185 90 C184.73517822 89.0709082 184.47035645 88.14181641 184.19750977 87.18457031 C182.76350556 83.3710839 180.94342244 81.49993387 178.02734375 78.671875 C177.54423233 78.19679504 177.06112091 77.72171509 176.56336975 77.23223877 C175.0306543 75.72833498 173.48487784 74.23879974 171.9375 72.75 C170.3892993 71.24434418 168.84396702 69.73584961 167.30091858 68.22491455 C165.90622354 66.86175393 164.5039517 65.50635827 163.10131836 64.15136719 C161 62 161 62 160 60 C154.70773829 60.4291023 150.55559241 62.49454661 145.828125 64.72265625 C136.35779817 69 136.35779817 69 132 69 C132.0689712 74.32069006 132.15698361 79.64060134 132.26245117 84.96069336 C132.29565114 86.76952458 132.32369841 88.57845818 132.34643555 90.38745117 C132.38007258 92.99181633 132.43239195 95.5952476 132.48828125 98.19921875 C132.49786613 99.40731453 132.49786613 99.40731453 132.50764465 100.63981628 C132.63068562 105.36654881 133.32683862 107.97952509 136 112 C135.375 115.1875 135.375 115.1875 134 118 C130.76746204 120.15502531 129.74849077 120.46856135 126 120 C124.1875 118.5 124.1875 118.5 123 117 C123.061875 118.216875 123.12375 119.43375 123.1875 120.6875 C123.2013288 124.58722274 122.39550436 126.83793424 120 130 C119 131 119 131 116.1875 131.3125 C113 131 113 131 110.625 129.375 C108.54593117 126.33636094 108.53844631 124.61550392 109 121 C109.99 119.515 109.99 119.515 111 118 C111 117.34 111 116.68 111 116 C109.948125 116.99 109.948125 116.99 108.875 118 C105.49736169 120.34966143 104.02695637 120.68543938 100 120 C97.625 118.375 97.625 118.375 96 116 C95.625 112.875 95.625 112.875 96 110 C96.66 109.34 97.32 108.68 98 108 C98.24581843 105.13563176 98.37369381 102.3609686 98.4140625 99.4921875 C98.43342865 98.65156769 98.4527948 97.81094788 98.4727478 96.94485474 C98.53261658 94.25500697 98.57895771 91.56511657 98.625 88.875 C98.6631731 87.05336656 98.70222444 85.2317513 98.7421875 83.41015625 C98.83832398 78.94025148 98.92232769 74.47026221 99 70 C98.46546204 69.80124771 97.93092407 69.60249542 97.38018799 69.39772034 C96.67110291 69.13313522 95.96201782 68.86855011 95.23144531 68.59594727 C94.53190735 68.33531998 93.83236938 68.07469269 93.1116333 67.8061676 C89.95242574 66.60006293 86.85612969 65.27505144 83.75 63.9375 C82.56921875 63.43089844 81.3884375 62.92429688 80.171875 62.40234375 C77.7391185 61.32677776 75.37099032 60.20059496 73 59 C69.45999082 62.41589882 65.93712691 65.8482905 62.42871094 69.29663086 C61.23432127 70.46596227 60.03547114 71.63075638 58.83203125 72.79077148 C57.0972761 74.46449427 55.37951767 76.15418446 53.6640625 77.84765625 C53.12754059 78.35837173 52.59101868 78.86908722 52.03823853 79.39527893 C48.41628616 83.01449761 47.15030597 86.06528405 46 91 C44.25 93 44.25 93 42 94 C38.50010028 93.92857348 36.70736857 93.66021066 34.125 91.25 C32.75136496 88.50272993 32.46937884 87.03212094 33 84 C35.18312161 80.94362975 36.53896119 80.1026236 40.22680664 79.28173828 C44.99302958 77.66267193 47.38552943 75.25602514 50.80859375 71.6796875 C51.72597069 70.75169846 51.72597069 70.75169846 52.66188049 69.80496216 C54.59921274 67.83979713 56.51836405 65.85792261 58.4375 63.875 C59.75339162 62.5340114 61.0704377 61.19415462 62.38867188 59.85546875 C65.60595755 56.58326119 68.80705892 53.29595963 72 50 C75.97502791 51.55100486 79.66503493 53.37755607 83.4375 55.375 C89.58842759 58.55665675 95.60905732 60.55725104 102.33203125 62.2734375 C105 63 105 63 106 64 C106.12185143 65.34983748 106.17766831 66.70574701 106.20532227 68.06079102 C106.2352401 69.35201622 106.2352401 69.35201622 106.26576233 70.66932678 C106.28247482 71.60473801 106.29918732 72.54014923 106.31640625 73.50390625 C106.33718735 74.45692123 106.35796844 75.40993622 106.37937927 76.39183044 C106.44498177 79.4486441 106.50380918 82.50554656 106.5625 85.5625 C106.60567506 87.62956663 106.64928901 89.69662414 106.69335938 91.76367188 C106.80067401 96.84235595 106.90191091 101.9211297 107 107 C107.33 106.34 107.66 105.68 108 105 C108.99 105 109.98 105 111 105 C110.99476318 104.03811768 110.98952637 103.07623535 110.98413086 102.08520508 C110.96577533 98.45272789 110.95445857 94.82025463 110.94506836 91.18774414 C110.94009693 89.62751573 110.93331743 88.06729183 110.92456055 86.50708008 C110.87755542 77.90514126 110.97046849 69.40845456 111.77734375 60.83398438 C112.13948518 56.2246228 112.08332583 51.61995431 112 47 C111.06800781 46.79246094 110.13601562 46.58492187 109.17578125 46.37109375 C99.80113994 44.10563443 92.36012875 40.89785321 84 36 C81.88245667 34.75969813 81.88245667 34.75969813 80 34 C77.80092298 34.51603346 77.80092298 34.51603346 76 36 C75.29848848 37.3153341 74.63474075 38.65117592 74 40 C72.66666667 41.33333333 71.33333333 42.66666667 70 44 C69.5875 44.763125 69.175 45.52625 68.75 46.3125 C66.59872056 49.61625057 63.98872671 51.77073624 60.9921875 54.30078125 C57.7170502 57.09428071 54.76791525 60.18820388 51.8125 63.3125 C50 65 50 65 48 65 C47.79375 65.556875 47.5875 66.11375 47.375 66.6875 C46 69 46 69 43.0625 71.4375 C39.94992813 73.75484431 39.94992813 73.75484431 38.4375 76.625 C37 79 37 79 34.4375 80.3125 C31.876146 81.71031803 31.876146 81.71031803 31.4453125 83.85546875 C31.31898437 84.56316406 31.19265625 85.27085937 31.0625 86 C30.38074769 89.49237269 30.26455108 89.80599588 27.1875 92.0625 C23.80912358 93.05614012 22.26740986 93.23631725 19 92 C17.34765625 90.7265625 17.34765625 90.7265625 16 89 C15.8203125 86.84375 15.8203125 86.84375 16.125 84.5 C16.21007812 83.7265625 16.29515625 82.953125 16.3828125 82.15625 C17.0935418 79.67319572 18.04886866 78.64527832 20 77 C19.175 76.319375 18.35 75.63875 17.5 74.9375 C15 72 15 72 14.4375 68.375 C15 65 15 65 16.625 63.1875 C19 62 19 62 21.78149414 61.25732422 C25.60855183 59.76226641 28.03372155 57.56099261 30.87109375 54.6953125 C31.39768082 54.17492401 31.92426788 53.65453552 32.46681213 53.11837769 C33.57002534 52.02223406 34.66818316 50.9209812 35.76147461 49.81494141 C37.4413144 48.12115393 39.14390966 46.45285346 40.84960938 44.78515625 C41.92072298 43.71499313 42.99043594 42.64342588 44.05859375 41.5703125 C44.56990341 41.07226105 45.08121307 40.57420959 45.60801697 40.06106567 C47.18694917 38.49765482 47.18694917 38.49765482 49 36 C49.03422125 33.81802285 49.03422125 33.81802285 48 32 C47.55785156 31.04867187 47.11570313 30.09734375 46.66015625 29.1171875 C45.60175417 26.96932997 44.53930243 24.82346288 43.47265625 22.6796875 C41.67648739 18.19164754 40.80536993 13.75114606 40 9 C34.67930994 9.0689712 29.35939866 9.15698361 24.03930664 9.26245117 C22.23047542 9.29565114 20.42154182 9.32369841 18.61254883 9.34643555 C16.00818367 9.38007258 13.4047524 9.43239195 10.80078125 9.48828125 C9.99538406 9.49467117 9.18998688 9.5010611 8.36018372 9.50764465 C3.6653263 9.62985588 0.96079424 10.26417481 -3 13 C-5.9040085 12.86171388 -7.42765101 12.42926174 -9.75 10.6875 C-11.2491191 8.66368922 -11.85120899 7.52944715 -12 5 C-8.91765176 -1.31147496 -6.70139561 -1.31634557 0 0 Z M-8 4 C-7.67 5.32 -7.34 6.64 -7 8 C-5.35 7.67 -3.7 7.34 -2 7 C-2.33 5.68 -2.66 4.36 -3 3 C-5.9254644 2.7763932 -5.9254644 2.7763932 -8 4 Z M234 3 C233.67 3.99 233.34 4.98 233 6 C233.66 6.66 234.32 7.32 235 8 C237.10820797 7.6814823 237.10820797 7.6814823 239 7 C238.67 5.68 238.34 4.36 238 3 C236.68 3 235.36 3 234 3 Z M150 33 C149.51273438 33.37511719 149.02546875 33.75023437 148.5234375 34.13671875 C140.80284352 39.70958386 132.24763654 42.55888246 123.1328125 45.078125 C120.15874306 45.68167907 120.15874306 45.68167907 119 47 C118.93057111 48.79012049 118.93248763 50.583051 118.96240234 52.37426758 C118.97927094 53.52248489 118.99613953 54.67070221 119.01351929 55.85371399 C119.0374173 57.10468369 119.06131531 58.35565338 119.0859375 59.64453125 C119.10717682 60.92100021 119.12841614 62.19746918 119.15029907 63.51261902 C119.19667116 66.2204861 119.24509464 68.92822622 119.296875 71.63598633 C119.3629054 75.10273432 119.42026629 78.56955975 119.47490501 82.03650379 C119.52815616 85.34343175 119.58859259 88.65021596 119.6484375 91.95703125 C119.66828705 93.20192825 119.6881366 94.44682526 119.70858765 95.72944641 C119.73176056 96.88712021 119.75493347 98.04479401 119.77880859 99.23754883 C119.79736908 100.25601395 119.81592957 101.27447906 119.83505249 102.32380676 C119.98166663 104.70255004 120.42587112 106.70369815 121 109 C120.814375 109.86625 120.62875 110.7325 120.4375 111.625 C120.2209375 112.800625 120.2209375 112.800625 120 114 C120.66 114.66 121.32 115.32 122 116 C122.28875 114.741875 122.5775 113.48375 122.875 112.1875 C123.57303539 109.1460601 124.20446585 107.69330122 126 105 C126.28807713 103.00239911 126.28807713 103.00239911 126.22705078 100.80395508 C126.22689972 99.96331009 126.22674866 99.1226651 126.22659302 98.25654602 C126.21627045 97.35333115 126.20594788 96.45011627 126.1953125 95.51953125 C126.1924826 94.59154221 126.18965271 93.66355316 126.18673706 92.70744324 C126.17553836 89.74233121 126.15043435 86.77752079 126.125 83.8125 C126.1149698 81.80273874 126.10584402 79.79297274 126.09765625 77.78320312 C126.07560004 72.85535247 126.04107229 67.92772738 126 63 C126.60468613 62.94213318 127.20937225 62.88426636 127.8323822 62.824646 C128.63269363 62.7429718 129.43300507 62.66129761 130.25756836 62.57714844 C131.04787949 62.49865662 131.83819061 62.42016479 132.65245056 62.33929443 C136.24611972 61.81989666 139.19726043 60.63463728 142.5625 59.25 C143.53183472 58.85554688 143.53183472 58.85554688 144.52075195 58.453125 C148.15345714 56.93184114 151.43672095 55.21588685 154.6875 53 C155.780625 52.34 156.87375 51.68 158 51 C162.31077253 52.17061269 165.20531733 55.99136033 168.2265625 59.1015625 C168.81545258 59.69802582 169.40434265 60.29448914 170.01107788 60.9090271 C171.88727331 62.80961254 173.75686995 64.71648834 175.625 66.625 C178.09068393 69.14368225 180.56276702 71.65581757 183.0390625 74.1640625 C183.60678375 74.74838043 184.174505 75.33269836 184.75942993 75.9347229 C186.13540283 77.32792862 187.56329961 78.66950551 189 80 C189.66 80 190.32 80 191 80 C190.29920746 76.54588501 190.29920746 76.54588501 189 73 C187.0998823 71.75825204 187.0998823 71.75825204 185 71 C183.98758315 69.67607028 182.98560611 68.34400833 182 67 C181.34 67 180.68 67 180 67 C179.9175 66.44699219 179.835 65.89398438 179.75 65.32421875 C177.22289542 57.49282695 168.92318931 50.75542017 163.13671875 45.140625 C160.44648504 42.44547313 158.01564297 39.57467474 155.60546875 36.62890625 C153.86916937 34.86725943 152.25830883 33.97484481 150 33 Z M20 66 C19.34 67.32 18.68 68.64 18 70 C19.98 70.99 19.98 70.99 22 72 C22.66 71.34 23.32 70.68 24 70 C23.6814823 67.89179203 23.6814823 67.89179203 23 66 C22.01 66 21.02 66 20 66 Z M208 66 C207.67 67.32 207.34 68.64 207 70 C208.485 70.99 208.485 70.99 210 72 C210.99 71.34 211.98 70.68 213 70 C212.67 68.68 212.34 67.36 212 66 C210.68 66 209.36 66 208 66 Z M28 67 C27.67 69.31 27.34 71.62 27 74 C26.01 74.33 25.02 74.66 24 75 C25.32 75.33 26.64 75.66 28 76 C28.33 73.03 28.66 70.06 29 67 C28.67 67 28.34 67 28 67 Z M203 71 C204 73 204 73 204 73 Z M204 73 C204.33 73.99 204.66 74.98 205 76 C207.01508358 76.73323796 207.01508358 76.73323796 209 77 C207.68799596 75.64567325 206.35368596 74.31266518 205 73 C204.67 73 204.34 73 204 73 Z M198 83 C199 85 199 85 199 85 Z M38 84 C36.98888907 87.04913228 36.98888907 87.04913228 38 90 C39.98491642 89.73323796 39.98491642 89.73323796 42 89 C42.33 88.01 42.66 87.02 43 86 C42.34 85.34 41.68 84.68 41 84 C40.01 84 39.02 84 38 84 Z M191 84 C190.34 84.66 189.68 85.32 189 86 C189.3185177 88.10820797 189.3185177 88.10820797 190 90 C191.32 89.67 192.64 89.34 194 89 C194 87.68 194 86.36 194 85 C193.01 84.67 192.02 84.34 191 84 Z M109 109 C110 111 110 111 110 111 Z M102 110 C101.34 110.66 100.68 111.32 100 112 C100.3185177 114.10820797 100.3185177 114.10820797 101 116 C103.9254644 116.2236068 103.9254644 116.2236068 106 115 C105.34 113.35 104.68 111.7 104 110 C103.34 110 102.68 110 102 110 Z M126 111 C126.33 112.65 126.66 114.3 127 116 C128.97536745 115.65213292 128.97536745 115.65213292 131 115 C131.33 114.34 131.66 113.68 132 113 C131.02149805 111.97895449 130.02019573 110.9793879 129 110 C127.7763932 109.9254644 127.7763932 109.9254644 126 111 Z " fill="#BBF0F8" transform="translate(24,43)"/>
<path d="M0 0 C4.27238166 1.64666059 7.09544742 4.86052503 10.2265625 8.06640625 C11.10989761 8.95754372 11.10989761 8.95754372 12.01107788 9.86668396 C13.88720808 11.76059274 15.75650105 13.66106431 17.625 15.5625 C19.50150464 17.46661442 21.37944576 19.36925439 23.26034546 21.26902771 C24.42947724 22.45042549 25.59592558 23.63448601 26.75942993 24.82142639 C29.5974205 27.77936873 29.5974205 27.77936873 33 30 C32.505 28.02 32.505 28.02 32 26 C32.99 25.505 32.99 25.505 34 25 C34 26.65 34 28.3 34 30 C34.804375 30.268125 35.60875 30.53625 36.4375 30.8125 C37.283125 31.204375 38.12875 31.59625 39 32 C39.33 32.99 39.66 33.98 40 35 C40.66 35 41.32 35 42 35 C41.52613972 39.26474248 39.22968679 41.35752899 36 44 C33.4375 44.5625 33.4375 44.5625 31 44 C28.21083982 41.92805244 27.15370231 40.53924399 26.19750977 37.18457031 C24.76350556 33.3710839 22.94342244 31.49993387 20.02734375 28.671875 C19.54423233 28.19679504 19.06112091 27.72171509 18.56336975 27.23223877 C17.0306543 25.72833498 15.48487784 24.23879974 13.9375 22.75 C12.3892993 21.24434418 10.84396702 19.73584961 9.30091858 18.22491455 C7.90622354 16.86175393 6.5039517 15.50635827 5.10131836 14.15136719 C3 12 3 12 2 10 C-3.29226171 10.4291023 -7.44440759 12.49454661 -12.171875 14.72265625 C-21.64220183 19 -21.64220183 19 -26 19 C-25.9310288 24.32069006 -25.84301639 29.64060134 -25.73754883 34.96069336 C-25.70434886 36.76952458 -25.67630159 38.57845818 -25.65356445 40.38745117 C-25.61992742 42.99181633 -25.56760805 45.5952476 -25.51171875 48.19921875 C-25.50532883 49.00461594 -25.4989389 49.81001312 -25.49235535 50.63981628 C-25.36931438 55.36654881 -24.67316138 57.97952509 -22 62 C-22.625 65.1875 -22.625 65.1875 -24 68 C-27.24826674 70.16551116 -28.23094157 70.55156953 -32 70 C-34.3125 68.375 -34.3125 68.375 -36 66 C-36.52093127 62.50231864 -36.5112948 60.74356637 -34.48876953 57.80224609 C-32.57238139 54.1951121 -32.63906604 51.07678601 -32.7421875 47.1015625 C-32.74880402 46.34837738 -32.75542053 45.59519226 -32.76223755 44.81918335 C-32.78554732 42.42069774 -32.82919693 40.02315243 -32.875 37.625 C-32.91024547 35.23410186 -32.94108127 32.84326458 -32.96633911 30.45223999 C-32.98310077 28.96844755 -33.00605737 27.4847071 -33.03634644 26.00112915 C-33.1000826 21.53334876 -32.73476112 17.38921202 -32 13 C-31.07960937 12.79246094 -30.15921875 12.58492187 -29.2109375 12.37109375 C-18.59118631 9.78644962 -9.16283419 6.10855613 0 0 Z M33 34 C32.34 34.66 31.68 35.32 31 36 C31.3185177 38.10820797 31.3185177 38.10820797 32 40 C33.32 39.67 34.64 39.34 36 39 C36 37.68 36 36.36 36 35 C35.01 34.67 34.02 34.34 33 34 Z M-32 61 C-31.67 62.65 -31.34 64.3 -31 66 C-29.02463255 65.65213292 -29.02463255 65.65213292 -27 65 C-26.67 64.34 -26.34 63.68 -26 63 C-26.97850195 61.97895449 -27.97980427 60.9793879 -29 60 C-30.2236068 59.9254644 -30.2236068 59.9254644 -32 61 Z " fill="#22DAF9" transform="translate(182,93)"/>
<path d="M0 0 C0.66 0.66 1.32 1.32 2 2 C3.88435153 2.27736701 3.88435153 2.27736701 6.05078125 2.1953125 C7.30217896 2.18540283 7.30217896 2.18540283 8.57885742 2.17529297 C9.48095947 2.15869629 10.38306152 2.14209961 11.3125 2.125 C12.69949097 2.11364014 12.69949097 2.11364014 14.11450195 2.10205078 C17.07652085 2.07755683 20.03815637 2.04029719 23 2 C26.89582272 1.94699561 30.79145384 1.90690976 34.6875 1.875 C35.58960205 1.85840332 36.4917041 1.84180664 37.42114258 1.82470703 C38.25540771 1.81810059 39.08967285 1.81149414 39.94921875 1.8046875 C40.68487061 1.79421387 41.42052246 1.78374023 42.1784668 1.77294922 C44 2 44 2 46 4 C46.45264973 5.9040492 46.83760746 7.82441688 47.1875 9.75 C49.09132104 18.53686632 52.93830931 26.21946541 57.78125 33.78125 C58.1834375 34.5134375 58.585625 35.245625 59 36 C58.505 36.99 58.505 36.99 58 38 C57.34 38 56.68 38 56 38 C55.78537109 38.54422607 55.57074219 39.08845215 55.34960938 39.64916992 C53.52963238 42.81931437 51.03072422 45.11753347 48.40625 47.61328125 C47.28212264 48.70724118 46.1584384 49.8016566 45.03515625 50.89648438 C43.26929579 52.60665571 41.49986457 54.31262935 39.72216797 56.01049805 C38.00131022 57.65843809 36.29681684 59.32198759 34.59375 60.98828125 C34.0635022 61.48644852 33.53325439 61.98461578 32.98693848 62.49787903 C29.36218005 66.07249067 28.16760296 69.1071701 27 74 C26.34 74.66 25.68 75.32 25 76 C24.67 76.66 24.34 77.32 24 78 C20.08558973 76.69519658 17.46030049 75.37152289 15 72 C14.5 68.4375 14.5 68.4375 15 65 C17.10481005 62.65232725 18.74505557 62.06807171 21.78149414 61.25732422 C25.60855183 59.76226641 28.03372155 57.56099261 30.87109375 54.6953125 C31.39768082 54.17492401 31.92426788 53.65453552 32.46681213 53.11837769 C33.57002534 52.02223406 34.66818316 50.9209812 35.76147461 49.81494141 C37.4413144 48.12115393 39.14390966 46.45285346 40.84960938 44.78515625 C41.92072298 43.71499313 42.99043594 42.64342588 44.05859375 41.5703125 C44.56990341 41.07226105 45.08121307 40.57420959 45.60801697 40.06106567 C47.18694917 38.49765482 47.18694917 38.49765482 49 36 C49.03422125 33.81802285 49.03422125 33.81802285 48 32 C47.55785156 31.04867187 47.11570313 30.09734375 46.66015625 29.1171875 C45.60175417 26.96932997 44.53930243 24.82346288 43.47265625 22.6796875 C41.67648739 18.19164754 40.80536993 13.75114606 40 9 C34.67930994 9.0689712 29.35939866 9.15698361 24.03930664 9.26245117 C22.23047542 9.29565114 20.42154182 9.32369841 18.61254883 9.34643555 C16.00818367 9.38007258 13.4047524 9.43239195 10.80078125 9.48828125 C9.99538406 9.49467117 9.18998688 9.5010611 8.36018372 9.50764465 C3.6653263 9.62985588 0.96079424 10.26417481 -3 13 C-5.9040085 12.86171388 -7.42765101 12.42926174 -9.75 10.6875 C-11.2491191 8.66368922 -11.85120899 7.52944715 -12 5 C-8.91765176 -1.31147496 -6.70139561 -1.31634557 0 0 Z M-8 4 C-7.67 5.32 -7.34 6.64 -7 8 C-5.35 7.67 -3.7 7.34 -2 7 C-2.33 5.68 -2.66 4.36 -3 3 C-5.9254644 2.7763932 -5.9254644 2.7763932 -8 4 Z M20 66 C19.34 67.32 18.68 68.64 18 70 C19.98 70.99 19.98 70.99 22 72 C22.66 71.34 23.32 70.68 24 70 C23.6814823 67.89179203 23.6814823 67.89179203 23 66 C22.01 66 21.02 66 20 66 Z " fill="#22D8FA" transform="translate(24,43)"/>
<path d="M0 0 C3.97502791 1.55100486 7.66503493 3.37755607 11.4375 5.375 C17.58842759 8.55665675 23.60905732 10.55725104 30.33203125 12.2734375 C33 13 33 13 34 14 C34.12340172 17.11522474 34.18619718 20.21166402 34.2109375 23.328125 C34.23901439 25.2617271 34.26767891 27.19532073 34.296875 29.12890625 C34.33810116 32.18798514 34.37497332 35.24690752 34.40136719 38.30615234 C34.42900337 41.25131224 34.47488656 44.19574551 34.5234375 47.140625 C34.52669037 48.05225403 34.52994324 48.96388306 34.53329468 49.90313721 C34.63006526 54.91085304 35.1195055 57.76168655 38 62 C37.67 62.99 37.34 63.98 37 65 C37.66 65.33 38.32 65.66 39 66 C36.30505778 68.53641621 34.63396685 69.89649521 30.9375 70.5 C28 70 28 70 25.625 68.375 C23.55638552 65.35164037 23.53120201 63.59411792 24 60 C24.99 59.01 24.99 59.01 26 58 C26.24581843 55.13563176 26.37369381 52.3609686 26.4140625 49.4921875 C26.43342865 48.65156769 26.4527948 47.81094788 26.4727478 46.94485474 C26.53261658 44.25500697 26.57895771 41.56511657 26.625 38.875 C26.6631731 37.05336656 26.70222444 35.2317513 26.7421875 33.41015625 C26.83832398 28.94025148 26.92232769 24.47026221 27 20 C26.46546204 19.80124771 25.93092407 19.60249542 25.38018799 19.39772034 C24.67110291 19.13313522 23.96201782 18.86855011 23.23144531 18.59594727 C22.53190735 18.33531998 21.83236938 18.07469269 21.1116333 17.8061676 C17.95242574 16.60006293 14.85612969 15.27505144 11.75 13.9375 C10.56921875 13.43089844 9.3884375 12.92429687 8.171875 12.40234375 C5.7391185 11.32677776 3.37099032 10.20059496 1 9 C-2.54000918 12.41589882 -6.06287309 15.8482905 -9.57128906 19.29663086 C-10.76567873 20.46596227 -11.96452886 21.63075638 -13.16796875 22.79077148 C-14.9027239 24.46449427 -16.62048233 26.15418446 -18.3359375 27.84765625 C-18.87245941 28.35837173 -19.40898132 28.86908722 -19.96176147 29.39527893 C-23.58371384 33.01449761 -24.84969403 36.06528405 -26 41 C-27.75 43 -27.75 43 -30 44 C-33.49989972 43.92857348 -35.29263143 43.66021066 -37.875 41.25 C-39.24863504 38.50272993 -39.53062116 37.03212094 -39 34 C-36.81687839 30.94362975 -35.46103881 30.1026236 -31.77319336 29.28173828 C-27.00697042 27.66267193 -24.61447057 25.25602514 -21.19140625 21.6796875 C-20.27402931 20.75169846 -20.27402931 20.75169846 -19.33811951 19.80496216 C-17.40078726 17.83979713 -15.48163595 15.85792261 -13.5625 13.875 C-12.24660838 12.5340114 -10.9295623 11.19415462 -9.61132812 9.85546875 C-6.39404245 6.58326119 -3.19294108 3.29595963 0 0 Z M-34 34 C-35.01111093 37.04913228 -35.01111093 37.04913228 -34 40 C-32.01508358 39.73323796 -32.01508358 39.73323796 -30 39 C-29.67 38.01 -29.34 37.02 -29 36 C-29.66 35.34 -30.32 34.68 -31 34 C-31.99 34 -32.98 34 -34 34 Z M30 60 C29.34 60.66 28.68 61.32 28 62 C28.3185177 64.10820797 28.3185177 64.10820797 29 66 C31.9254644 66.2236068 31.9254644 66.2236068 34 65 C33.34 63.35 32.68 61.7 32 60 C31.34 60 30.68 60 30 60 Z " fill="#36D0F0" transform="translate(96,93)"/>
<path d="M0 0 C3.375 0.875 3.375 0.875 5.375 3.875 C5.8125 6.8125 5.8125 6.8125 5.375 9.875 C3.25 12.3125 3.25 12.3125 0.375 13.875 C-3.35206873 13.72884044 -4.96711707 13.53288293 -7.625 10.875 C-10.48936824 10.62918157 -13.2640314 10.50130619 -16.1328125 10.4609375 C-16.97343231 10.44157135 -17.81405212 10.4222052 -18.68014526 10.4022522 C-21.36999303 10.34238342 -24.05988343 10.29604229 -26.75 10.25 C-28.57163344 10.2118269 -30.3932487 10.17277556 -32.21484375 10.1328125 C-36.68474852 10.03667602 -41.15473779 9.95267231 -45.625 9.875 C-45.80385742 10.66656494 -45.98271484 11.45812988 -46.16699219 12.27368164 C-47.81340943 19.2507208 -49.9550106 24.95251854 -53.515625 31.18359375 C-54.86486069 34.45691555 -54.71509873 35.53544761 -53.625 38.875 C-50.75023853 42.50249198 -47.44594694 45.71263371 -44.16235352 48.96899414 C-42.57418694 50.55085943 -41.01448393 52.15741587 -39.45507812 53.76757812 C-34.20499645 59.08011725 -30.25999873 62.78932966 -22.625 63.875 C-20.625 66.875 -20.625 66.875 -20.8125 70.375 C-21.61410151 73.82805265 -22.01714133 74.72068197 -24.625 76.875 C-24.625 77.535 -24.625 78.195 -24.625 78.875 C-28.625 78.875 -28.625 78.875 -30.2578125 77.5546875 C-30.99644531 76.66136719 -30.99644531 76.66136719 -31.75 75.75 C-32.24757812 75.16992188 -32.74515625 74.58984375 -33.2578125 73.9921875 C-34.625 71.875 -34.625 71.875 -35.31323242 69.15332031 C-37.04205253 64.83271796 -39.63213979 62.45204151 -42.98046875 59.3046875 C-44.25462348 58.06647436 -45.52871003 56.82819105 -46.80273438 55.58984375 C-48.81415178 53.65957366 -50.82962783 51.73367154 -52.84741211 49.81005859 C-54.79792989 47.94364549 -56.7333106 46.06251333 -58.66796875 44.1796875 C-59.27932175 43.60668915 -59.89067474 43.0336908 -60.52055359 42.44332886 C-62.19995117 40.80419922 -62.19995117 40.80419922 -64.625 37.875 C-64.16431409 34.39917903 -62.54844672 31.76483405 -60.8125 28.75 C-56.34331548 20.69046341 -53.37562002 12.91987009 -51.625 3.875 C-46.96791658 2.6766793 -42.51240179 2.79756046 -37.74609375 2.8828125 C-36.00326095 2.90032114 -34.26042205 2.91723015 -32.51757812 2.93359375 C-29.78311183 2.96460291 -27.04895221 3.00022871 -24.31469727 3.04638672 C-21.66679025 3.08870758 -19.01924636 3.11215341 -16.37109375 3.1328125 C-15.14597328 3.16074387 -15.14597328 3.16074387 -13.89610291 3.1892395 C-8.18673621 3.21504089 -5.15966635 -0.17791953 0 0 Z M-3.625 3.875 C-3.955 4.865 -4.285 5.855 -4.625 6.875 C-3.965 7.535 -3.305 8.195 -2.625 8.875 C-0.51679203 8.5564823 -0.51679203 8.5564823 1.375 7.875 C1.045 6.555 0.715 5.235 0.375 3.875 C-0.945 3.875 -2.265 3.875 -3.625 3.875 Z M-29.625 66.875 C-29.955 68.195 -30.285 69.515 -30.625 70.875 C-29.14 71.865 -29.14 71.865 -27.625 72.875 C-26.635 72.215 -25.645 71.555 -24.625 70.875 C-24.955 69.555 -25.285 68.235 -25.625 66.875 C-26.945 66.875 -28.265 66.875 -29.625 66.875 Z " fill="#2ED5F5" transform="translate(261.625,42.125)"/>
<path d="M0 0 C1.73131628 2.6731959 2.23672271 4.84512055 3 8 C4.32 5.03 5.64 2.06 7 -1 C7.66 -1 8.32 -1 9 -1 C10.32 2.3 11.64 5.6 13 9 C13.99 6.36 14.98 3.72 16 1 C15.34 1 14.68 1 14 1 C14 0.34 14 -0.32 14 -1 C16.64 -1 19.28 -1 22 -1 C22 -0.34 22 0.32 22 1 C21.01 1.66 20.02 2.32 19 3 C17.98034964 5.71715279 17.10731685 8.34434166 16.3125 11.125 C16.08755859 11.87910156 15.86261719 12.63320313 15.63085938 13.41015625 C15.07745009 15.27055343 14.53743072 17.13492421 14 19 C13.01 19 12.02 19 11 19 C9.68 15.7 8.36 12.4 7 9 C6.01 12.3 5.02 15.6 4 19 C3.01 18.67 2.02 18.34 1 18 C-0.18716935 14.81436689 -1.12499036 11.64692091 -2.01757812 8.37109375 C-2.65868285 6.09190734 -2.65868285 6.09190734 -4 3 C-6.24318756 1.9322255 -7.55417808 2 -10 2 C-9.95359375 2.97582031 -9.9071875 3.95164062 -9.859375 4.95703125 C-9.80523437 6.86548828 -9.80523437 6.86548828 -9.75 8.8125 C-9.70359375 10.07707031 -9.6571875 11.34164062 -9.609375 12.64453125 C-10 16 -10 16 -11.796875 17.921875 C-15.05215383 19.51488379 -17.43122627 19.44609672 -21 19 C-23.98615619 16.78048714 -24.89616539 15.56579268 -25.57421875 11.87109375 C-25.61160156 10.73800781 -25.64898437 9.60492188 -25.6875 8.4375 C-25.86430011 3.63417161 -25.86430011 3.63417161 -27 -1 C-24.36 -1 -21.72 -1 -19 -1 C-18.67 -0.34 -18.34 0.32 -18 1 C-18.99 1.495 -18.99 1.495 -20 2 C-20 6.62 -20 11.24 -20 16 C-18.02 15.67 -16.04 15.34 -14 15 C-12.61773984 12.23547967 -12.90474613 9.9538637 -12.9375 6.875 C-12.94652344 5.77929688 -12.95554687 4.68359375 -12.96484375 3.5546875 C-12.97644531 2.71164063 -12.98804687 1.86859375 -13 1 C-13.66 1 -14.32 1 -15 1 C-15 0.34 -15 -0.32 -15 -1 C-9.86924868 -2.31557726 -4.79236957 -2.433772 0 0 Z " fill="#F0B560" transform="translate(132,47)"/>
<path d="M0 0 C2.10648479 2.10648479 1.16161189 6.79018262 1.17578125 9.70703125 C1.19898264 11.50847519 1.22310011 13.30990751 1.24804688 15.11132812 C1.28316245 17.96207396 1.3124995 20.81239433 1.32592773 23.66333008 C1.34139709 26.40759337 1.38160509 29.15059962 1.42578125 31.89453125 C1.42387283 32.74570023 1.42196442 33.5968692 1.41999817 34.47383118 C1.46420449 39.37826685 1.46420449 39.37826685 4.05151367 43.4284668 C4.69451416 43.94707275 5.33751465 44.46567871 6 45 C5.75 47.25 5.75 47.25 5 49 C5.66 49.33 6.32 49.66 7 50 C4.30505778 52.53641621 2.63396685 53.89649521 -1.0625 54.5 C-4 54 -4 54 -6.375 52.375 C-8.44361448 49.35164037 -8.46879799 47.59411792 -8 44 C-7.34 43.34 -6.68 42.68 -6 42 C-5.75418157 39.13563176 -5.62630619 36.3609686 -5.5859375 33.4921875 C-5.56657135 32.65156769 -5.5472052 31.81094788 -5.5272522 30.94485474 C-5.46738342 28.25500697 -5.42104229 25.56511657 -5.375 22.875 C-5.3368269 21.05336656 -5.29777556 19.2317513 -5.2578125 17.41015625 C-5.16167602 12.94025148 -5.07767231 8.47026221 -5 4 C-7.475 3.01 -7.475 3.01 -10 2 C-10 1.67 -10 1.34 -10 1 C-3.375 -1.125 -3.375 -1.125 0 0 Z M-2 44 C-2.66 44.66 -3.32 45.32 -4 46 C-3.6814823 48.10820797 -3.6814823 48.10820797 -3 50 C-0.0745356 50.2236068 -0.0745356 50.2236068 2 49 C1.34 47.35 0.68 45.7 0 44 C-0.66 44 -1.32 44 -2 44 Z " fill="#2EE4F9" transform="translate(128,109)"/>
<path d="M0 0 C0.66 0.66 1.32 1.32 2 2 C4.57579385 2.24529581 7.05229007 2.37341793 9.6328125 2.4140625 C10.38464813 2.43342865 11.13648376 2.4527948 11.91110229 2.4727478 C14.31561899 2.53259147 16.72018344 2.57894726 19.125 2.625 C20.75392728 2.66317546 22.38283428 2.70222693 24.01171875 2.7421875 C28.00764806 2.83829666 32.00367187 2.92230941 36 3 C36 3.33 36 3.66 36 4 C12.41761516 5.19388403 12.41761516 5.19388403 1 5 C1 5.33 1 5.66 1 6 C2.11036621 6.01981934 3.22073242 6.03963867 4.36474609 6.06005859 C8.47614602 6.13601081 12.58718718 6.2247436 16.69824219 6.31738281 C18.47909473 6.35571565 20.26002584 6.39056089 22.04101562 6.421875 C24.59794234 6.46743271 27.1543261 6.52544107 29.7109375 6.5859375 C30.50994476 6.59748871 31.30895203 6.60903992 32.13217163 6.62094116 C37.77225659 6.77225659 37.77225659 6.77225659 40 9 C38.87505127 9.01458252 37.75010254 9.02916504 36.59106445 9.04418945 C32.40682613 9.10227754 28.22312003 9.17950964 24.03930664 9.26245117 C22.23047542 9.29565114 20.42154182 9.32369841 18.61254883 9.34643555 C16.00818367 9.38007258 13.4047524 9.43239195 10.80078125 9.48828125 C9.99538406 9.49467117 9.18998688 9.5010611 8.36018372 9.50764465 C3.6653263 9.62985588 0.96079424 10.26417481 -3 13 C-5.9040085 12.86171388 -7.42765101 12.42926174 -9.75 10.6875 C-11.2491191 8.66368922 -11.85120899 7.52944715 -12 5 C-8.91765176 -1.31147496 -6.70139561 -1.31634557 0 0 Z M-8 4 C-7.67 5.32 -7.34 6.64 -7 8 C-5.35 7.67 -3.7 7.34 -2 7 C-2.33 5.68 -2.66 4.36 -3 3 C-5.9254644 2.7763932 -5.9254644 2.7763932 -8 4 Z " fill="#41CEED" transform="translate(24,43)"/>
<path d="M0 0 C0.66 0 1.32 0 2 0 C1.84349817 4.87917476 -0.62382807 6.9225749 -3.96679688 10.07421875 C-5.27458182 11.26924126 -6.58446229 12.46197476 -7.89648438 13.65234375 C-12.12348381 17.64670458 -13.77937129 20.32233276 -15 26 C-15.66 26.66 -16.32 27.32 -17 28 C-17.33 28.66 -17.66 29.32 -18 30 C-21.91441027 28.69519658 -24.53969951 27.37152289 -27 24 C-27.5 20.4375 -27.5 20.4375 -27 17 C-24.88546537 14.64148061 -23.2392898 14.06381061 -20.1875 13.25 C-15.75023879 11.50989757 -13.15359069 8.48947609 -10 5 C-10 5.99 -10 6.98 -10 8 C-10.66 8.66 -11.32 9.32 -12 10 C-10.68 10.33 -9.36 10.66 -8 11 C-7.67 10.01 -7.34 9.02 -7 8 C-6.01 8 -5.02 8 -4 8 C-4 7.01 -4 6.02 -4 5 C-3.34 4.67 -2.68 4.34 -2 4 C-0.86649466 1.98330173 -0.86649466 1.98330173 0 0 Z M-22 18 C-22.66 19.32 -23.32 20.64 -24 22 C-22.02 22.99 -22.02 22.99 -20 24 C-19.34 23.34 -18.68 22.68 -18 22 C-18.3185177 19.89179203 -18.3185177 19.89179203 -19 18 C-19.99 18 -20.98 18 -22 18 Z " fill="#3BDAF5" transform="translate(66,91)"/>
<path d="M0 0 C1.051875 0.309375 2.10375 0.61875 3.1875 0.9375 C7.54864679 2.20641816 7.54864679 2.20641816 12 3 C12.66 2.34 13.32 1.68 14 1 C14.763125 1.78375 15.52625 2.5675 16.3125 3.375 C18.90891805 6.07257717 18.90891805 6.07257717 22 8 C22 8.66 22 9.32 22 10 C21.34 10 20.68 10 20 10 C20 10.66 20 11.32 20 12 C20.66 12.33 21.32 12.66 22 13 C21.67 14.32 21.34 15.64 21 17 C21.66 17 22.32 17 23 17 C22.67 18.65 22.34 20.3 22 22 C17.00558986 19.45567785 14.78093322 17.92983616 12 13 C10.36368108 11.95107762 8.69514137 10.95093297 7 10 C3.5836741 7.08607497 1.85142829 4.07314224 0 0 Z " fill="#B6F5FC" transform="translate(201,104)"/>
<path d="M0 0 C0.67095703 0.58007812 0.67095703 0.58007812 1.35546875 1.171875 C4.8521026 4.18390075 8.37407463 7.14321031 12 10 C11.67 8.68 11.34 7.36 11 6 C11.66 5.67 12.32 5.34 13 5 C13 6.65 13 8.3 13 10 C13.804375 10.268125 14.60875 10.53625 15.4375 10.8125 C16.283125 11.204375 17.12875 11.59625 18 12 C18.33 12.99 18.66 13.98 19 15 C19.66 15 20.32 15 21 15 C20.52613972 19.26474248 18.22968679 21.35752899 15 24 C12.4375 24.5625 12.4375 24.5625 10 24 C7.6875 22.375 7.6875 22.375 6 20 C5.75 16.75 5.75 16.75 6 14 C7.32 14 8.64 14 10 14 C9.49743888 11.98567734 9.49743888 11.98567734 8 10 C5.66989091 9.32215008 3.33640176 8.65583207 1 8 C-0.9375 5.875 -0.9375 5.875 -2 4 C-1.34 2.68 -0.68 1.36 0 0 Z M12 14 C11.34 14.66 10.68 15.32 10 16 C10.3185177 18.10820797 10.3185177 18.10820797 11 20 C12.32 19.67 13.64 19.34 15 19 C15 17.68 15 16.36 15 15 C14.01 14.67 13.02 14.34 12 14 Z " fill="#39DDF4" transform="translate(203,113)"/>
<path d="M0 0 C3 1 3 1 4 2 C4.14797962 4.93194166 4.23512314 7.84327495 4.28125 10.77734375 C4.29965942 11.65902725 4.31806885 12.54071075 4.33703613 13.44911194 C4.39597953 16.27850468 4.44870633 19.10795884 4.5 21.9375 C4.56751779 25.65507996 4.64121572 29.37246077 4.71875 33.08984375 C4.73232544 33.9513353 4.74590088 34.81282684 4.7598877 35.70042419 C4.72951791 39.98634844 4.72951791 39.98634844 6 44 C4.02 44 2.04 44 0 44 C0 30.47 0 16.94 0 3 C-0.66 3 -1.32 3 -2 3 C-2 2.34 -2 1.68 -2 1 C-1.34 0.67 -0.68 0.34 0 0 Z " fill="#21D5FB" transform="translate(125,108)"/>
<path d="M0 0 C0.556875 0.7734375 0.556875 0.7734375 1.125 1.5625 C-0.195 1.8925 -1.515 2.2225 -2.875 2.5625 C-2.82859375 3.53832031 -2.7821875 4.51414062 -2.734375 5.51953125 C-2.68023437 7.42798828 -2.68023437 7.42798828 -2.625 9.375 C-2.57859375 10.63957031 -2.5321875 11.90414062 -2.484375 13.20703125 C-2.875 16.5625 -2.875 16.5625 -4.671875 18.484375 C-7.92715383 20.07738379 -10.30622627 20.00859672 -13.875 19.5625 C-16.86115619 17.34298714 -17.77116539 16.12829268 -18.44921875 12.43359375 C-18.48660156 11.30050781 -18.52398437 10.16742188 -18.5625 9 C-18.73930011 4.19667161 -18.73930011 4.19667161 -19.875 -0.4375 C-17.235 -0.4375 -14.595 -0.4375 -11.875 -0.4375 C-11.545 0.2225 -11.215 0.8825 -10.875 1.5625 C-11.865 2.0575 -11.865 2.0575 -12.875 2.5625 C-12.875 7.1825 -12.875 11.8025 -12.875 16.5625 C-10.895 16.2325 -8.915 15.9025 -6.875 15.5625 C-5.49273984 12.79797967 -5.77974613 10.5163637 -5.8125 7.4375 C-5.82152344 6.34179688 -5.83054687 5.24609375 -5.83984375 4.1171875 C-5.85144531 3.27414063 -5.86304687 2.43109375 -5.875 1.5625 C-6.535 1.5625 -7.195 1.5625 -7.875 1.5625 C-7.875 0.9025 -7.875 0.2425 -7.875 -0.4375 C-2.33653846 -1.79134615 -2.33653846 -1.79134615 0 0 Z " fill="#2DA975" transform="translate(124.875,46.4375)"/>
<path d="M0 0 C2.31243792 -0.02685412 4.6249627 -0.04632841 6.9375 -0.0625 C8.22527344 -0.07410156 9.51304687 -0.08570313 10.83984375 -0.09765625 C14 0 14 0 15 1 C15.04063832 2.66617115 15.042721 4.33388095 15 6 C14.01 6 13.02 6 12 6 C11.34 5.01 10.68 4.02 10 3 C7.94074861 2.27617533 7.94074861 2.27617533 6 2 C6 4.31 6 6.62 6 9 C7.98 9 9.96 9 12 9 C12 9.66 12 10.32 12 11 C10.02 11 8.04 11 6 11 C6 12.98 6 14.96 6 17 C8.97065509 16.65772428 8.97065509 16.65772428 12 16 C12.33 15.34 12.66 14.68 13 14 C13.99 14 14.98 14 16 14 C15.67 15.65 15.34 17.3 15 19 C10.05 19.33 5.1 19.66 0 20 C0 19.01 0 18.02 0 17 C0.66 17 1.32 17 2 17 C1.85899143 14.72886197 1.71203245 12.45809275 1.5625 10.1875 C1.48128906 8.92292969 1.40007812 7.65835938 1.31640625 6.35546875 C1.12815453 3.00818107 1.12815453 3.00818107 0 0 Z " fill="#DB4542" transform="translate(155,46)"/>
<path d="M0 0 C3.375 0.875 3.375 0.875 5.375 3.875 C5.8125 6.8125 5.8125 6.8125 5.375 9.875 C3.25 12.3125 3.25 12.3125 0.375 13.875 C-3.35206873 13.72884044 -4.96711707 13.53288293 -7.625 10.875 C-10.48936824 10.62918157 -13.2640314 10.50130619 -16.1328125 10.4609375 C-16.97343231 10.44157135 -17.81405212 10.4222052 -18.68014526 10.4022522 C-21.36999303 10.34238342 -24.05988343 10.29604229 -26.75 10.25 C-28.57163344 10.2118269 -30.3932487 10.17277556 -32.21484375 10.1328125 C-36.68474852 10.03667602 -41.15473779 9.95267231 -45.625 9.875 C-45.955 11.525 -46.285 13.175 -46.625 14.875 C-46.955 14.875 -47.285 14.875 -47.625 14.875 C-47.667721 13.20888095 -47.66563832 11.54117115 -47.625 9.875 C-46.04023948 8.29023948 -44.39607999 8.71072683 -42.19702148 8.66967773 C-41.25612167 8.64973251 -40.31522186 8.62978729 -39.34580994 8.60923767 C-38.32290359 8.59252518 -37.29999725 8.57581268 -36.24609375 8.55859375 C-34.683395 8.5274221 -34.683395 8.5274221 -33.08912659 8.49562073 C-29.74698753 8.43000943 -26.40476715 8.37118669 -23.0625 8.3125 C-20.80272582 8.26932578 -18.54295999 8.22571186 -16.28320312 8.18164062 C-10.73055579 8.07431633 -5.17782679 7.97257188 0.375 7.875 C0.375 6.885 0.375 5.895 0.375 4.875 C-0.57375 4.91625 -1.5225 4.9575 -2.5 5 C-5.625 4.875 -5.625 4.875 -7.625 2.875 C-4.9375797 0.1875797 -3.8931865 -0.13424781 0 0 Z " fill="#48D1EB" transform="translate(261.625,42.125)"/>
<path d="M0 0 C0.66 0.33 1.32 0.66 2 1 C1.98428955 2.12494873 1.9685791 3.24989746 1.95239258 4.40893555 C1.89798784 8.59278165 1.86361164 12.77659662 1.83520508 16.96069336 C1.82014245 18.76966617 1.79968823 20.5786026 1.77368164 22.38745117 C1.7371868 24.99146515 1.72024843 27.5949952 1.70703125 30.19921875 C1.69154739 31.00461594 1.67606354 31.81001312 1.66011047 32.63981628 C1.65869047 37.40514202 2.28322044 39.95264673 5 44 C4.375 47.1875 4.375 47.1875 3 50 C-0.24826674 52.16551116 -1.23094157 52.55156953 -5 52 C-7.3125 50.375 -7.3125 50.375 -9 48 C-9.25 44.75 -9.25 44.75 -9 42 C-7.68 42 -6.36 42 -5 42 C-4.67 43.65 -4.34 45.3 -4 47 C-2.02 46.505 -2.02 46.505 0 46 C-0.16455185 45.42888489 -0.3291037 44.85776978 -0.49864197 44.26934814 C-1.00722292 41.96730617 -1.08547659 40.04202525 -1.02172852 37.69042969 C-0.99158409 36.4295755 -0.99158409 36.4295755 -0.96083069 35.14324951 C-0.93379562 34.24519592 -0.90676056 33.34714233 -0.87890625 32.421875 C-0.85529526 31.4953009 -0.83168427 30.56872681 -0.80735779 29.61407471 C-0.73088117 26.65922107 -0.64678793 23.70464013 -0.5625 20.75 C-0.5092633 18.74480494 -0.45652301 16.73959663 -0.40429688 14.734375 C-0.27528764 9.8227445 -0.13944779 4.91134478 0 0 Z " fill="#3BD1F4" transform="translate(155,111)"/>
<path d="M0 0 C2.41859231 1.50306253 4.21525782 3.1930325 6.21386719 5.22192383 C6.96796875 5.9824707 7.72207031 6.74301758 8.49902344 7.52661133 C9.27632812 8.32067383 10.05363281 9.11473633 10.85449219 9.93286133 C11.64726562 10.7346582 12.44003906 11.53645508 13.25683594 12.36254883 C15.21063712 14.33988979 17.15961322 16.32175042 19.10449219 18.30786133 C16.10449219 19.30786133 16.10449219 19.30786133 13.10449219 19.30786133 C13.10449219 17.98786133 13.10449219 16.66786133 13.10449219 15.30786133 C12.11449219 15.30786133 11.12449219 15.30786133 10.10449219 15.30786133 C10.10449219 13.98786133 10.10449219 12.66786133 10.10449219 11.30786133 C8.12449219 11.30786133 6.14449219 11.30786133 4.10449219 11.30786133 C3.43782552 8.64119466 2.77115885 5.97452799 2.10449219 3.30786133 C0.45449219 3.30786133 -1.19550781 3.30786133 -2.89550781 3.30786133 C-3.22550781 3.96786133 -3.55550781 4.62786133 -3.89550781 5.30786133 C-4.88550781 5.63786133 -5.87550781 5.96786133 -6.89550781 6.30786133 C-5.57550781 6.96786133 -4.25550781 7.62786133 -2.89550781 8.30786133 C-8.16894531 11.53051758 -8.16894531 11.53051758 -9.89550781 12.30786133 C-10.55550781 11.97786133 -11.21550781 11.64786133 -11.89550781 11.30786133 C-11.23550781 10.31786133 -10.57550781 9.32786133 -9.89550781 8.30786133 C-11.87550781 8.30786133 -13.85550781 8.30786133 -15.89550781 8.30786133 C-12.97405173 6.06943086 -9.99757695 3.97671341 -6.89550781 1.99536133 C-6.04988281 1.44235352 -5.20425781 0.8893457 -4.33300781 0.31958008 C-1.89550781 -0.69213867 -1.89550781 -0.69213867 0 0 Z " fill="#36D2F1" transform="translate(183.8955078125,93.692138671875)"/>
<path d="M0 0 C1.68178661 2.52267991 2.90106742 4.81091823 4.125 7.5625 C4.47820312 8.34753906 4.83140625 9.13257812 5.1953125 9.94140625 C6 12 6 12 6 14 C5.01 14 4.02 14 3 14 C4.485 18.455 4.485 18.455 6 23 C5.175 23.495 4.35 23.99 3.5 24.5 C-1.48628067 27.8202203 -7.07744397 32.23233191 -9 38 C-11.475 38.495 -11.475 38.495 -14 39 C-9.62308709 33.70163174 -4.92766684 28.99864402 0.12109375 24.33203125 C2.22132705 22.24130236 2.22132705 22.24130236 1.9453125 20.015625 C0.40743929 16.73652344 -1.24339923 13.53863884 -2.94140625 10.33984375 C-4 8 -4 8 -4 5 C-3.01 5 -2.02 5 -1 5 C-0.67 3.35 -0.34 1.7 0 0 Z " fill="#33D2F2" transform="translate(71,57)"/>
<path d="M0 0 C0.99 0 1.98 0 3 0 C2.70996094 0.56460938 2.41992188 1.12921875 2.12109375 1.7109375 C0.63700262 4.74117235 -0.62184865 7.85567971 -1.90234375 10.9765625 C-3 13 -3 13 -6 15 C-9.44447462 14.85648022 -11.32425573 14.63069465 -13.875 12.25 C-15.24863504 9.50272993 -15.53062116 8.03212094 -15 5 C-13.375 2.6875 -13.375 2.6875 -11 1 C-7.75 0.75 -7.75 0.75 -5 1 C-5.99 1.66 -6.98 2.32 -8 3 C-7.01 3.66 -6.02 4.32 -5 5 C-5.33 5.66 -5.66 6.32 -6 7 C-7.32 6.34 -8.64 5.68 -10 5 C-10 6.98 -10 8.96 -10 11 C-9.21625 10.649375 -8.4325 10.29875 -7.625 9.9375 C-6.75875 9.628125 -5.8925 9.31875 -5 9 C-4.34 9.33 -3.68 9.66 -3 10 C-3 8.02 -3 6.04 -3 4 C-2.34 3.67 -1.68 3.34 -1 3 C-0.67 2.01 -0.34 1.02 0 0 Z " fill="#43CEEB" transform="translate(72,122)"/>
<path d="M0 0 C-0.33 0.99 -0.66 1.98 -1 3 C-11.89 2.67 -22.78 2.34 -34 2 C-30.49035866 -1.50964134 -29.70509503 -1.41196238 -24.94140625 -1.58203125 C-23.75095703 -1.62650391 -22.56050781 -1.67097656 -21.33398438 -1.71679688 C-20.08939453 -1.74837891 -18.84480469 -1.77996094 -17.5625 -1.8125 C-15.70141602 -1.88887695 -15.70141602 -1.88887695 -13.80273438 -1.96679688 C-3.71097168 -2.28881634 -3.71097168 -2.28881634 0 0 Z " fill="#1FD7FC" transform="translate(258,48)"/>
<path d="M0 0 C0.99 0 1.98 0 3 0 C3 0.99 3 1.98 3 3 C3.66 3 4.32 3 5 3 C5.33 2.01 5.66 1.02 6 0 C6.99 0 7.98 0 9 0 C9.33 0.66 9.66 1.32 10 2 C11.32 1.34 12.64 0.68 14 0 C13.46274105 3.37705625 12.88935377 6.696686 12 10 C10.68 9.67 9.36 9.34 8 9 C8 8.01 8 7.02 8 6 C7.34 6 6.68 6 6 6 C5.67 7.65 5.34 9.3 5 11 C2 9 2 9 1.26953125 6.8359375 C1.11871094 6.02382813 0.96789062 5.21171875 0.8125 4.375 C0.65394531 3.55773438 0.49539062 2.74046875 0.33203125 1.8984375 C0.22246094 1.27195312 0.11289063 0.64546875 0 0 Z " fill="#38ADD6" transform="translate(94,29)"/>
<path d="M0 0 C3.3 0 6.6 0 10 0 C10.87890625 6.93359375 10.87890625 6.93359375 11 9 C10 10 10 10 7.1875 10.3125 C4 10 4 10 1.625 8.375 C-0.4131192 5.3962104 -0.32152515 3.53677664 0 0 Z " fill="#C1ECF9" transform="translate(133,164)"/>
<path d="M0 0 C1.00023253 3.18255804 1.15774716 4.61439583 -0.125 7.75 C-2 10 -2 10 -4.6875 10.8125 C-5.450625 10.874375 -6.21375 10.93625 -7 11 C-7 10.34 -7 9.68 -7 9 C-7.66 8.67 -8.32 8.34 -9 8 C-8.67 7.34 -8.34 6.68 -8 6 C-8.66 6 -9.32 6 -10 6 C-9.49396008 3.83125748 -9.00016187 2.00032373 -8 0 C-4.71023192 -1.09658936 -3.28696233 -0.79953138 0 0 Z " fill="#C1F1FB" transform="translate(239,125)"/>
<path d="M0 0 C0.67095703 0.58007812 0.67095703 0.58007812 1.35546875 1.171875 C1.96003906 1.69265625 2.56460938 2.2134375 3.1875 2.75 C3.82300781 3.29785156 4.45851562 3.84570312 5.11328125 4.41015625 C6.6625797 5.71567275 8.26264654 6.96070933 9.875 8.1875 C12 10 12 10 13 13 C12.34 13 11.68 13 11 13 C11.020625 14.11375 11.04125 15.2275 11.0625 16.375 C11 20 11 20 10 22 C8.68 21.34 7.36 20.68 6 20 C6 18.02 6 16.04 6 14 C7.32 14 8.64 14 10 14 C9.49743888 11.98567734 9.49743888 11.98567734 8 10 C5.66989091 9.32215008 3.33640176 8.65583207 1 8 C-0.9375 5.875 -0.9375 5.875 -2 4 C-1.34 2.68 -0.68 1.36 0 0 Z " fill="#2ED3F5" transform="translate(203,113)"/>
<path d="M0 0 C0.33 0 0.66 0 1 0 C1 4.29 1 8.58 1 13 C-0.65 13.33 -2.3 13.66 -4 14 C-6.17831524 16.90442032 -6.19715281 19.45124947 -6 23 C-7.32 22.67 -8.64 22.34 -10 22 C-10 19 -10 16 -10 13 C-9.236875 12.938125 -8.47375 12.87625 -7.6875 12.8125 C-4.85809826 12.23557003 -4.85809826 12.23557003 -3.3125 9.875 C-1.83795903 6.64505311 -0.87612545 3.43710754 0 0 Z " fill="#AFEDFB" transform="translate(143,136)"/>
<path d="M0 0 C0.99 0.33 1.98 0.66 3 1 C2.67 1.66 2.34 2.32 2 3 C3.32 3.33 4.64 3.66 6 4 C6 4.66 6 5.32 6 6 C6.66 6 7.32 6 8 6 C9.625 8 9.625 8 11 10 C8.58978936 11.51754003 7.31664378 12.02316906 4.4375 11.8125 C1.71800513 10.90600171 0.57172691 10.3989516 -1 8 C-1.25265405 4.90498792 -1.39935013 2.79870027 0 0 Z " fill="#BAE8F8" transform="translate(41,124)"/>
<path d="M0 0 C0.99 0.33 1.98 0.66 3 1 C1.71937515 2.7074998 0.38232443 4.37373596 -1 6 C-1.66 6 -2.32 6 -3 6 C-3.2475 6.5775 -3.495 7.155 -3.75 7.75 C-5.18299988 10.32939979 -6.78424676 12.06121592 -9 14 C-9.66 14 -10.32 14 -11 14 C-11 12.35 -11 10.7 -11 9 C-11.99 8.67 -12.98 8.34 -14 8 C-14 7.34 -14 6.68 -14 6 C-13.01 5.67 -12.02 5.34 -11 5 C-10.34 5.33 -9.68 5.66 -9 6 C-7.27317419 5.2308002 -7.27317419 5.2308002 -5.5 4.0625 C-2.2 2 -2.2 2 0 2 C0 1.34 0 0.68 0 0 Z " fill="#BDF0FC" transform="translate(75,102)"/>
<path d="M0 0 C1.98 0.495 1.98 0.495 4 1 C4.33 1.66 4.66 2.32 5 3 C5.66 2.01 6.32 1.02 7 0 C7.66 0 8.32 0 9 0 C9 3.3 9 6.6 9 10 C7.68 9.67 6.36 9.34 5 9 C4.67 8.34 4.34 7.68 4 7 C3.34 8.32 2.68 9.64 2 11 C1.01 10.34 0.02 9.68 -1 9 C-0.67 6.03 -0.34 3.06 0 0 Z " fill="#3CB3DE" transform="translate(53,29)"/>
<path d="M0 0 C0.66 0.99 1.32 1.98 2 3 C-1.3 3.33 -4.6 3.66 -8 4 C-7.67 4.99 -7.34 5.98 -7 7 C-5.68 7 -4.36 7 -3 7 C-2.34 6.34 -1.68 5.68 -1 5 C-1.33 6.32 -1.66 7.64 -2 9 C-5.37817425 9.84454356 -7.67465243 10.10844919 -11 9 C-11.6875 7.3125 -11.6875 7.3125 -12 5 C-8.9450917 -1.25528842 -6.67314456 -1.42995955 0 0 Z " fill="#57DBF9" transform="translate(24,43)"/>
<path d="M0 0 C1.9375 1.1875 1.9375 1.1875 3 3 C2.92137573 6.14497061 2.38075868 7.56283262 0.3125 9.9375 C-2 11 -2 11 -5.25 10.1875 C-6.61125 9.5996875 -6.61125 9.5996875 -8 9 C-9.3260274 3.57534247 -9.3260274 3.57534247 -7.9375 1.125 C-5.14003001 -0.49933741 -3.17634515 -0.39704314 0 0 Z M-5 2 C-6.01111093 5.04913228 -6.01111093 5.04913228 -5 8 C-3.68 8 -2.36 8 -1 8 C0.01111093 4.95086772 0.01111093 4.95086772 -1 2 C-2.32 2 -3.64 2 -5 2 Z " fill="#42B7E5" transform="translate(205,29)"/>
<path d="M0 0 C2.0625 0.9375 2.0625 0.9375 4 3 C4.27737419 6.9197352 4.08192097 10.65570582 1.56640625 13.78125 C0 15 0 15 -2 15 C-1.67 12.03 -1.34 9.06 -1 6 C-1.598125 6.515625 -2.19625 7.03125 -2.8125 7.5625 C-3.534375 8.036875 -4.25625 8.51125 -5 9 C-5.99 8.67 -6.98 8.34 -8 8 C-7.01 7.67 -6.02 7.34 -5 7 C-5 6.01 -5 5.02 -5 4 C-4.360625 3.896875 -3.72125 3.79375 -3.0625 3.6875 C-2.381875 3.460625 -1.70125 3.23375 -1 3 C-0.67 2.01 -0.34 1.02 0 0 Z " fill="#A2F4F9" transform="translate(60,108)"/>
<path d="M0 0 C0.680625 0.309375 1.36125 0.61875 2.0625 0.9375 C2.0625 1.5975 2.0625 2.2575 2.0625 2.9375 C3.0525 3.2675 4.0425 3.5975 5.0625 3.9375 C2.70811267 5.36694945 1.58217567 6.02411261 -1.1875 5.5625 C-1.765 5.35625 -2.3425 5.15 -2.9375 4.9375 C-2.9375 5.9275 -2.9375 6.9175 -2.9375 7.9375 C-4.5875 7.9375 -6.2375 7.9375 -7.9375 7.9375 C-8.5975 9.5875 -9.2575 11.2375 -9.9375 12.9375 C-10.5975 12.9375 -11.2575 12.9375 -11.9375 12.9375 C-10.65005539 7.07247457 -6.65346125 -0.14156301 0 0 Z " fill="#25D5F9" transform="translate(96.9375,95.0625)"/>
<path d="M0 0 C0.99 0 1.98 0 3 0 C3.66 0.99 4.32 1.98 5 3 C5.66 2.01 6.32 1.02 7 0 C7.66 0 8.32 0 9 0 C9 3.3 9 6.6 9 10 C8.01 10.495 8.01 10.495 7 11 C6.67 9.35 6.34 7.7 6 6 C5.01 6 4.02 6 3 6 C2.67 7.65 2.34 9.3 2 11 C1.34 10.67 0.68 10.34 0 10 C0 6.7 0 3.4 0 0 Z " fill="#4EB8E2" transform="translate(175,29)"/>
<path d="M0 0 C0.66 0.33 1.32 0.66 2 1 C1.01 2.485 1.01 2.485 0 4 C-0.66 4 -1.32 4 -2 4 C-2.33 4.99 -2.66 5.98 -3 7 C-3.33 7.99 -3.66 8.98 -4 10 C-4.99 10 -5.98 10 -7 10 C-7.33 11.32 -7.66 12.64 -8 14 C-8.66 14 -9.32 14 -10 14 C-10 15.98 -10 17.96 -10 20 C-10.99 19.67 -11.98 19.34 -13 19 C-13 17.68 -13 16.36 -13 15 C-13.99 14.34 -14.98 13.68 -16 13 C-15.27296875 12.5978125 -15.27296875 12.5978125 -14.53125 12.1875 C-8.84142268 8.86113941 -4.48354495 4.80550163 0 0 Z " fill="#20D6FB" transform="translate(79,112)"/>
<path d="M0 0 C1.98 0 3.96 0 6 0 C6.33 0.99 6.66 1.98 7 3 C5.68 3 4.36 3 3 3 C4.32 3.66 5.64 4.32 7 5 C6.67 6.65 6.34 8.3 6 10 C4.35 10.33 2.7 10.66 1 11 C-1.24948336 6.7822187 -0.9777007 4.6440783 0 0 Z " fill="#37B3D7" transform="translate(121,29)"/>
<path d="M0 0 C0.33 0.66 0.66 1.32 1 2 C1.99 1.67 2.98 1.34 4 1 C5.65 3.97 7.3 6.94 9 10 C8.01 10.99 7.02 11.98 6 13 C3.3125 12.6875 3.3125 12.6875 1 12 C1 11.01 1 10.02 1 9 C0.67464177 7.61789977 0.3185633 6.24279011 -0.0625 4.875 C-0.371875 3.59625 -0.68125 2.3175 -1 1 C-0.67 0.67 -0.34 0.34 0 0 Z " fill="#21D5FB" transform="translate(74,69)"/>
<path d="M0 0 C0.598125 0.20625 1.19625 0.4125 1.8125 0.625 C1.8125 2.625 1.8125 4.625 1.8125 6.625 C0.8225 6.625 -0.1675 6.625 -1.1875 6.625 C-1.1875 7.285 -1.1875 7.945 -1.1875 8.625 C-0.1975 8.625 0.7925 8.625 1.8125 8.625 C1.8125 9.615 1.8125 10.605 1.8125 11.625 C-0.5625 11.8125 -0.5625 11.8125 -3.1875 11.625 C-5.64081002 7.94503497 -5.58257893 5.97086828 -5.1875 1.625 C-2.1875 -0.375 -2.1875 -0.375 0 0 Z " fill="#3DB2DE" transform="translate(137.1875,28.375)"/>
<path d="M0 0 C0.66 0 1.32 0 2 0 C2.33 2.31 2.66 4.62 3 7 C3.99 4.69 4.98 2.38 6 0 C6.66 0 7.32 0 8 0 C8 2.97 8 5.94 8 9 C6.35 9.66 4.7 10.32 3 11 C0.9375 9.4375 0.9375 9.4375 -1 7 C-0.75 3.25 -0.75 3.25 0 0 Z " fill="#51B9DF" transform="translate(40,29)"/>
<path d="M0 0 C3.375 0.875 3.375 0.875 5.375 3.875 C5.5 7.0625 5.5 7.0625 5.375 9.875 C4.385 10.37 4.385 10.37 3.375 10.875 C3.375 10.215 3.375 9.555 3.375 8.875 C2.715 8.875 2.055 8.875 1.375 8.875 C1.045 7.555 0.715 6.235 0.375 4.875 C-0.57375 4.91625 -1.5225 4.9575 -2.5 5 C-5.625 4.875 -5.625 4.875 -7.625 2.875 C-4.9375797 0.1875797 -3.8931865 -0.13424781 0 0 Z " fill="#36CFED" transform="translate(261.625,42.125)"/>
<path d="M0 0 C1.0625 1.8125 1.0625 1.8125 0.75 4 C0.4096875 4.8971875 0.4096875 4.8971875 0.0625 5.8125 C0.7225 6.1425 1.3825 6.4725 2.0625 6.8125 C-0.71948242 9.4308364 -2.27444545 10.73449358 -6.125 11.1875 C-8.9375 10.8125 -8.9375 10.8125 -10.9375 8.8125 C-9.968125 8.544375 -8.99875 8.27625 -8 8 C-6.989375 7.608125 -5.97875 7.21625 -4.9375 6.8125 C-4.6075 5.8225 -4.2775 4.8325 -3.9375 3.8125 C-4.2675 3.1525 -4.5975 2.4925 -4.9375 1.8125 C-5.9275 1.8125 -6.9175 1.8125 -7.9375 1.8125 C-7.9375 1.1525 -7.9375 0.4925 -7.9375 -0.1875 C-2.48181438 -1.52111204 -2.48181438 -1.52111204 0 0 Z " fill="#36D5F4" transform="translate(132.9375,152.1875)"/>
<path d="M0 0 C0.99 0 1.98 0 3 0 C3 2.31 3 4.62 3 7 C4.98 7 6.96 7 9 7 C9 7.66 9 8.32 9 9 C7.02 9 5.04 9 3 9 C3.33 11.31 3.66 13.62 4 16 C2.68 15.67 1.36 15.34 0 15 C0 10.05 0 5.1 0 0 Z " fill="#EE3937" transform="translate(158,48)"/>
<path d="M0 0 C2.00720923 0.28674418 4.0085944 0.61866701 6 1 C6.33 2.65 6.66 4.3 7 6 C6.38125 6.268125 5.7625 6.53625 5.125 6.8125 C2.7004767 7.95556848 2.7004767 7.95556848 1 11 C0.34 11 -0.32 11 -1 11 C-1.02688151 9.35425434 -1.04634123 7.70838587 -1.0625 6.0625 C-1.07410156 5.14597656 -1.08570313 4.22945312 -1.09765625 3.28515625 C-1 1 -1 1 0 0 Z M2 3 C2.33 3.66 2.66 4.32 3 5 C3.33 4.34 3.66 3.68 4 3 C3.34 3 2.68 3 2 3 Z " fill="#42AEDA" transform="translate(213,28)"/>
<path d="M0 0 C0 2 0 4 0 6 C-0.99 6 -1.98 6 -3 6 C-3 6.66 -3 7.32 -3 8 C-1.68 8.33 -0.36 8.66 1 9 C0.67 9.66 0.34 10.32 0 11 C-2.97 10.505 -2.97 10.505 -6 10 C-6 6.7 -6 3.4 -6 0 C-3 -1 -3 -1 0 0 Z " fill="#38BAE0" transform="translate(158,29)"/>
<path d="M0 0 C0.33 0.66 0.66 1.32 1 2 C1.66 2.33 2.32 2.66 3 3 C2.67 4.32 2.34 5.64 2 7 C2.66 7 3.32 7 4 7 C3.67 8.65 3.34 10.3 3 12 C-0.465 10.02 -0.465 10.02 -4 8 C-4 6.35 -4 4.7 -4 3 C-3.34 3 -2.68 3 -2 3 C-2 2.34 -2 1.68 -2 1 C-1.34 0.67 -0.68 0.34 0 0 Z " fill="#B1EEFA" transform="translate(220,114)"/>
<path d="M0 0 C0.99 0 1.98 0 3 0 C3.50403768 1.29009643 4.00309926 2.58213789 4.5 3.875 C4.7784375 4.59429687 5.056875 5.31359375 5.34375 6.0546875 C6 8 6 8 6 10 C5.01 10 4.02 10 3 10 C3 9.34 3 8.68 3 8 C1.02 8.66 -0.96 9.32 -3 10 C-2.69201674 8.51988629 -2.378482 7.04092675 -2.0625 5.5625 C-1.88847656 4.73878906 -1.71445313 3.91507813 -1.53515625 3.06640625 C-1 1 -1 1 0 0 Z " fill="#35B3DC" transform="translate(235,29)"/>
<path d="M0 0 C0.66 0.33 1.32 0.66 2 1 C1.98952637 2.13018555 1.97905273 3.26037109 1.96826172 4.42480469 C1.93203568 8.62171252 1.90909002 12.81860654 1.89013672 17.015625 C1.88008509 18.83140386 1.86644172 20.64716656 1.84912109 22.46289062 C1.82483594 25.07425935 1.81350852 27.68541387 1.8046875 30.296875 C1.79436493 31.10743347 1.78404236 31.91799194 1.77340698 32.75311279 C1.77214732 38.17631051 1.77214732 38.17631051 4 43 C2.35 43 0.7 43 -1 43 C-0.67 28.81 -0.34 14.62 0 0 Z " fill="#47CCE9" transform="translate(155,111)"/>
<path d="M0 0 C0.66 0.33 1.32 0.66 2 1 C0.73548068 2.31858428 -0.53685475 3.62967631 -1.8125 4.9375 C-2.52019531 5.66839844 -3.22789063 6.39929688 -3.95703125 7.15234375 C-6 9 -6 9 -9 10 C-9.515625 10.515625 -10.03125 11.03125 -10.5625 11.5625 C-11.036875 12.036875 -11.51125 12.51125 -12 13 C-12.66 13 -13.32 13 -14 13 C-14 13.99 -14 14.98 -14 16 C-14.66 16 -15.32 16 -16 16 C-16 14.35 -16 12.7 -16 11 C-15.34 10.67 -14.68 10.34 -14 10 C-13.34 10.33 -12.68 10.66 -12 11 C-11.814375 10.071875 -11.814375 10.071875 -11.625 9.125 C-11 7 -11 7 -9 5 C-7.5459375 4.5359375 -7.5459375 4.5359375 -6.0625 4.0625 C-3.14160484 3.04912821 -1.91395315 2.33927607 0 0 Z " fill="#AAFFFF" transform="translate(69,99)"/>
<path d="M0 0 C1.12894876 0.93274109 2.25300876 1.87140122 3.375 2.8125 C4.00148437 3.33457031 4.62796875 3.85664062 5.2734375 4.39453125 C7 6 7 6 9 9 C8.401875 8.690625 7.80375 8.38125 7.1875 8.0625 C4.91043228 6.89790296 4.91043228 6.89790296 2 6 C2.515625 6.78375 3.03125 7.5675 3.5625 8.375 C4.036875 9.24125 4.51125 10.1075 5 11 C4.67 11.66 4.34 12.32 4 13 C2.66070495 11.71451591 1.32871357 10.42141845 0 9.125 C-0.7425 8.40570313 -1.485 7.68640625 -2.25 6.9453125 C-4 5 -4 5 -4 3 C-3.01 3 -2.02 3 -1 3 C-0.67 2.01 -0.34 1.02 0 0 Z " fill="#3BCFEA" transform="translate(221,95)"/>
<path d="M0 0 C3.01217112 0.64449607 5.51655836 1.65022182 8.25 3.0625 C8.95640625 3.42472656 9.6628125 3.78695312 10.390625 4.16015625 C10.92171875 4.43730469 11.4528125 4.71445313 12 5 C12 5.66 12 6.32 12 7 C9.52755385 8.16754401 7.63362072 9.0186359 4.875 8.9375 C2.12386185 7.56193093 1.29969751 5.72936476 0 3 C0 2.01 0 1.02 0 0 Z " fill="#24D5F6" transform="translate(223,101)"/>
<path d="M0 0 C0 1.65 0 3.3 0 5 C-0.66 5 -1.32 5 -2 5 C-1.814375 5.94875 -1.62875 6.8975 -1.4375 7.875 C-1 11 -1 11 -2 13 C-3.98 13 -5.96 13 -8 13 C-6.83042394 4.83042394 -6.83042394 4.83042394 -3.4375 1.4375 C-1 0 -1 0 0 0 Z " fill="#20D8FB" transform="translate(211,60)"/>
<path d="M0 0 C0.99 0 1.98 0 3 0 C3 2.31 3 4.62 3 7 C3.99 7 4.98 7 6 7 C5.67 7.99 5.34 8.98 5 10 C3.02 10 1.04 10 -1 10 C-2.38125018 7.23749964 -2.19079306 5.05268901 -2 2 C-1.34 1.34 -0.68 0.68 0 0 Z " fill="#2BDAF5" transform="translate(122,151)"/>
<path d="M0 0 C2.31243792 -0.02685412 4.6249627 -0.04632841 6.9375 -0.0625 C8.22527344 -0.07410156 9.51304687 -0.08570313 10.83984375 -0.09765625 C14 0 14 0 15 1 C15.04063832 2.66617115 15.042721 4.33388095 15 6 C14.01 6 13.02 6 12 6 C11.34 5.01 10.68 4.02 10 3 C7.79274927 2.63637182 7.79274927 2.63637182 5.375 2.8125 C4.55773437 2.83957031 3.74046875 2.86664063 2.8984375 2.89453125 C1.95871094 2.94673828 1.95871094 2.94673828 1 3 C0.67 2.01 0.34 1.02 0 0 Z " fill="#D6494A" transform="translate(155,46)"/>
<path d="M0 0 C0.33 0 0.66 0 1 0 C1.33 1.98 1.66 3.96 2 6 C2.33 6 2.66 6 3 6 C3.042721 7.66611905 3.04063832 9.33382885 3 11 C2.67 11.33 2.34 11.66 2 12 C1.76472227 14.34987262 1.58613583 16.70556039 1.4375 19.0625 C1.35371094 20.35285156 1.26992187 21.64320313 1.18359375 22.97265625 C1.12300781 23.97167969 1.06242188 24.97070312 1 26 C0.67 26 0.34 26 0 26 C-0.19670554 22.22958744 -0.38078426 18.45866237 -0.5625 14.6875 C-0.61857422 13.61564453 -0.67464844 12.54378906 -0.73242188 11.43945312 C-0.80493164 9.89741211 -0.80493164 9.89741211 -0.87890625 8.32421875 C-0.9260376 7.37635498 -0.97316895 6.42849121 -1.02172852 5.4519043 C-1 3 -1 3 0 0 Z " fill="#A8EEFD" transform="translate(136,115)"/>
<path d="M0 0 C2.64 0 5.28 0 8 0 C7.67 0.66 7.34 1.32 7 2 C6.34 2 5.68 2 5 2 C5 5.3 5 8.6 5 12 C4.01 11.34 3.02 10.68 2 10 C1.8125 6.375 1.8125 6.375 2 3 C1.34 2.67 0.68 2.34 0 2 C0 1.34 0 0.68 0 0 Z " fill="#61A7D7" transform="translate(163,29)"/>
<path d="M0 0 C0 0.66 0 1.32 0 2 C-0.66 2 -1.32 2 -2 2 C-2 4.64 -2 7.28 -2 10 C-2.99 10 -3.98 10 -5 10 C-5 7.36 -5 4.72 -5 2 C-5.99 1.67 -6.98 1.34 -8 1 C-8 0.67 -8 0.34 -8 0 C-4.71303767 -0.79953138 -3.28976808 -1.09658936 0 0 Z " fill="#2FBDE0" transform="translate(82,29)"/>
<path d="M0 0 C2.62030687 4.86628419 4.3283194 9.4185702 4 15 C3.67 14.34 3.34 13.68 3 13 C2.34 13 1.68 13 1 13 C1 12.01 1 11.02 1 10 C0.01 10 -0.98 10 -2 10 C-1.835 9.401875 -1.67 8.80375 -1.5 8.1875 C-0.8885876 5.88655664 -0.8885876 5.88655664 -1 3 C-0.67 2.01 -0.34 1.02 0 0 Z " fill="#A9F5FE" transform="translate(143,153)"/>
<path d="M0 0 C0.33 1.32 0.66 2.64 1 4 C2.65 4 4.3 4 6 4 C5.54917531 5.46067199 5.08906463 6.91848032 4.625 8.375 C4.36976563 9.18710938 4.11453125 9.99921875 3.8515625 10.8359375 C3 13 3 13 1 15 C1 13.35 1 11.7 1 10 C1.66 10 2.32 10 3 10 C2.67 8.68 2.34 7.36 2 6 C0.02 6.99 0.02 6.99 -2 8 C-1.34 5.36 -0.68 2.72 0 0 Z " fill="#39D0F0" transform="translate(208,55)"/>
<path d="M0 0 C2.64 0 5.28 0 8 0 C8 0.66 8 1.32 8 2 C7.01 2.66 6.02 3.32 5 4 C3.7811879 7.55672179 3.7811879 7.55672179 3 11 C2.34 11 1.68 11 1 11 C1.33 8.03 1.66 5.06 2 2 C1.34 2 0.68 2 0 2 C0 1.34 0 0.68 0 0 Z " fill="#E2A969" transform="translate(146,46)"/>
<path d="M0 0 C1.65 0 3.3 0 5 0 C5.33 0.99 5.66 1.98 6 3 C5.34 3.66 4.68 4.32 4 5 C2.68 5 1.36 5 0 5 C-0.66 6.65 -1.32 8.3 -2 10 C-2.99 9.67 -3.98 9.34 -5 9 C-5 7.68 -5 6.36 -5 5 C-1.91190305 3.23537317 -0.76687864 3 3 3 C3 2.34 3 1.68 3 1 C2.01 0.67 1.02 0.34 0 0 Z " fill="#41CCEC" transform="translate(232,105)"/>
<path d="M0 0 C2.64 0.66 5.28 1.32 8 2 C8 2.99 8 3.98 8 5 C8.99 5 9.98 5 11 5 C11 5.99 11 6.98 11 8 C8.69 8 6.38 8 4 8 C3.67 6.35 3.34 4.7 3 3 C1.68 2.67 0.36 2.34 -1 2 C-0.67 1.34 -0.34 0.68 0 0 Z " fill="#22D7FB" transform="translate(103,99)"/>
<path d="M0 0 C0 3 0 3 -2.15234375 5.375 C-3.07144531 6.24125 -3.99054688 7.1075 -4.9375 8 C-8.78096644 11.4734167 -8.78096644 11.4734167 -11 16 C-12.65 16.33 -14.3 16.66 -16 17 C-11.01595832 10.96668638 -5.58084697 5.4815829 0 0 Z " fill="#4BCDED" transform="translate(73,79)"/>
<path d="M0 0 C0 0.66 0 1.32 0 2 C0.66 2.33 1.32 2.66 2 3 C1.01 3.99 0.02 4.98 -1 6 C-2.98 5.34 -4.96 4.68 -7 4 C-7 3.01 -7 2.02 -7 1 C-3.375 -1.125 -3.375 -1.125 0 0 Z " fill="#2FD3F4" transform="translate(204,76)"/>
<path d="M0 0 C2.31 0.33 4.62 0.66 7 1 C7.5345256 2.24420647 8.05208611 3.49570936 8.5625 4.75 C8.85253906 5.44609375 9.14257812 6.1421875 9.44140625 6.859375 C10 9 10 9 9 13 C8.01 10.36 7.02 7.72 6 5 C5.34 5.66 4.68 6.32 4 7 C1.125 2.25 1.125 2.25 0 0 Z " fill="#E6BB70" transform="translate(125,46)"/>
<path d="M0 0 C2.475 0.99 2.475 0.99 5 2 C5 2.66 5 3.32 5 4 C7.475 4.99 7.475 4.99 10 6 C10 7.98 10 9.96 10 12 C5.40493818 8.44984265 2.23545746 5.52289491 0 0 Z " fill="#75FEFF" transform="translate(201,104)"/>
<path d="M0 0 C0.99 0 1.98 0 3 0 C3 0.66 3 1.32 3 2 C3.99 2.33 4.98 2.66 6 3 C5.34 5.31 4.68 7.62 4 10 C2.68 9.34 1.36 8.68 0 8 C0 5.36 0 2.72 0 0 Z " fill="#1ED9FC" transform="translate(66,53)"/>
<path d="M0 0 C0.99 0 1.98 0 3 0 C2.70996094 0.56332031 2.41992188 1.12664062 2.12109375 1.70703125 C0.62518455 4.7666086 -0.6262399 7.91754079 -1.90234375 11.07421875 C-3 13 -3 13 -6 14 C-5.67 12.68 -5.34 11.36 -5 10 C-4.34 10 -3.68 10 -3 10 C-3 8.02 -3 6.04 -3 4 C-2.34 3.67 -1.68 3.34 -1 3 C-0.67 2.01 -0.34 1.02 0 0 Z " fill="#3ECBEA" transform="translate(72,122)"/>
<path d="M0 0 C1.98 0.66 3.96 1.32 6 2 C6 4.31 6 6.62 6 9 C3.03 8.01 0.06 7.02 -3 6 C1 5 1 5 3 6 C3 5.01 3 4.02 3 3 C2.01 3 1.02 3 0 3 C0 2.01 0 1.02 0 0 Z " fill="#37D0ED" transform="translate(111,101)"/>
<path d="M0 0 C0.99 0 1.98 0 3 0 C5 2 5 2 5.125 5.125 C5.08375 6.07375 5.0425 7.0225 5 8 C4.34 8 3.68 8 3 8 C3 6.68 3 5.36 3 4 C-0.11785113 4.64644661 -0.11785113 4.64644661 -1 7 C-1.66 7 -2.32 7 -3 7 C-3 5.68 -3 4.36 -3 3 C-2.34 3 -1.68 3 -1 3 C-0.67 2.01 -0.34 1.02 0 0 Z " fill="#37BBF0" transform="translate(100,29)"/>
<path d="M0 0 C0.33 0.66 0.66 1.32 1 2 C1.66 2.33 2.32 2.66 3 3 C2.27683594 3.61488281 2.27683594 3.61488281 1.5390625 4.2421875 C0.90742187 4.78101562 0.27578125 5.31984375 -0.375 5.875 C-1.00148438 6.40867187 -1.62796875 6.94234375 -2.2734375 7.4921875 C-3.55836651 8.61432007 -4.79371975 9.79371975 -6 11 C-6 10.34 -6 9.68 -6 9 C-6.66 8.67 -7.32 8.34 -8 8 C-2.25 3 -2.25 3 0 3 C0 2.01 0 1.02 0 0 Z " fill="#C1F1FD" transform="translate(84,92)"/>
<path d="M0 0 C0.66 0.99 1.32 1.98 2 3 C1.22914062 2.98839844 0.45828125 2.97679687 -0.3359375 2.96484375 C-1.33882812 2.95582031 -2.34171875 2.94679687 -3.375 2.9375 C-4.87160156 2.92009766 -4.87160156 2.92009766 -6.3984375 2.90234375 C-8.98432453 2.81993398 -8.98432453 2.81993398 -11 4 C-8.41216357 -1.73020923 -5.98953485 -1.28347175 0 0 Z " fill="#4CCFE9" transform="translate(24,43)"/>
<path d="M0 0 C0.99 0 1.98 0 3 0 C3 0.99 3 1.98 3 3 C2.34 3 1.68 3 1 3 C1 3.99 1 4.98 1 6 C-1.53184488 8.35723489 -2.47190093 9 -6 9 C-6 7 -6 7 -4.125 5.0625 C-3.42375 4.381875 -2.7225 3.70125 -2 3 C-1.34 2.01 -0.68 1.02 0 0 Z " fill="#CDE9EF" transform="translate(171,66)"/>
<path d="M0 0 C0 0.99 0 1.98 0 3 C-1.65 2.67 -3.3 2.34 -5 2 C-4.67 4.31 -4.34 6.62 -4 9 C-4.66 9 -5.32 9 -6 9 C-6.66 6.03 -7.32 3.06 -8 0 C-4.29847322 -0.92538169 -3.36541838 -1.08174162 0 0 Z " fill="#B9E7EE" transform="translate(96,46)"/>
<path d="M0 0 C3.3 0 6.6 0 10 0 C9.67 1.32 9.34 2.64 9 4 C3.375 4.25 3.375 4.25 0 2 C0 1.34 0 0.68 0 0 Z " fill="#BFE7EE" transform="translate(134,170)"/>
<path d="M0 0 C1.65 0 3.3 0 5 0 C5 3.3 5 6.6 5 10 C3.68 9.67 2.36 9.34 1 9 C1.020625 8.071875 1.04125 7.14375 1.0625 6.1875 C1.15769604 2.97713989 1.15769604 2.97713989 0 0 Z " fill="#83E4FF" transform="translate(132,149)"/>
<path d="M0 0 C0.66 0.66 1.32 1.32 2 2 C1.7578125 3.9453125 1.7578125 3.9453125 1.125 6.125 C0.92132813 6.84945312 0.71765625 7.57390625 0.5078125 8.3203125 C0.25644531 9.15175781 0.25644531 9.15175781 0 10 C-2.64 10 -5.28 10 -8 10 C-7.67 9.01 -7.34 8.02 -7 7 C-6.01 7.33 -5.02 7.66 -4 8 C-3.34 7.67 -2.68 7.34 -2 7 C-1.26924352 4.6859378 -0.59861742 2.35171131 0 0 Z " fill="#27DEF8" transform="translate(238,106)"/>
<path d="M0 0 C4.2742558 1.5830577 6.26531794 4.50568404 9 8 C7.35 7.67 5.7 7.34 4 7 C4 6.01 4 5.02 4 4 C1.69 3.67 -0.62 3.34 -3 3 C-2.01 2.01 -1.02 1.02 0 0 Z " fill="#44C9EA" transform="translate(182,93)"/>
<path d="M0 0 C2.22640104 3.33960156 3.16130925 6.08610984 4 10 C3.01 11.485 3.01 11.485 2 13 C-1.52941176 5.5 -1.52941176 5.5 -1 1 C-0.67 0.67 -0.34 0.34 0 0 Z " fill="#F6B958" transform="translate(131,50)"/>
<path d="M0 0 C0.33 0.66 0.66 1.32 1 2 C1.66 2 2.32 2 3 2 C3 2.66 3 3.32 3 4 C5.31 3.34 7.62 2.68 10 2 C8.5511811 5.74278215 8.5511811 5.74278215 6.125 6.875 C3.52613603 7.02787435 2.1980747 6.33454536 0 5 C0 3.35 0 1.7 0 0 Z " fill="#44ACD5" transform="translate(197,33)"/>
<path d="M0 0 C0.99 0 1.98 0 3 0 C3 3.3 3 6.6 3 10 C2.01 10 1.02 10 0 10 C0 6.7 0 3.4 0 0 Z " fill="#3E9DC8" transform="translate(67,29)"/>
<path d="M0 0 C0.99 0 1.98 0 3 0 C3 3.3 3 6.6 3 10 C2.01 10 1.02 10 0 10 C0 6.7 0 3.4 0 0 Z " fill="#45ABD4" transform="translate(189,29)"/>
<path d="M0 0 C0 0.66 0 1.32 0 2 C-3.48216283 4.05137315 -6.77275657 4.56818592 -10.75 5.125 C-11.92046875 5.29257813 -13.0909375 5.46015625 -14.296875 5.6328125 C-15.18890625 5.75398438 -16.0809375 5.87515625 -17 6 C-17 5.34 -17 4.68 -17 4 C-14.5424552 3.33030409 -12.08405076 2.6641232 -9.625 2 C-8.57699219 1.71382813 -8.57699219 1.71382813 -7.5078125 1.421875 C-2.2265625 0 -2.2265625 0 0 0 Z " fill="#46D1E7" transform="translate(167,102)"/>
<path d="M0 0 C3.36295835 1.44126786 5.62927102 3.20592655 8 6 C8 6.99 8 7.98 8 9 C3.7257442 7.4169423 1.73468206 4.49431596 -1 1 C-0.67 0.67 -0.34 0.34 0 0 Z " fill="#ABF0FC" transform="translate(190,89)"/>
<path d="M0 0 C0.556875 0.7734375 0.556875 0.7734375 1.125 1.5625 C-0.195 1.8925 -1.515 2.2225 -2.875 2.5625 C-3.205 3.8825 -3.535 5.2025 -3.875 6.5625 C-4.535 5.9025 -5.195 5.2425 -5.875 4.5625 C-5.875 3.5725 -5.875 2.5825 -5.875 1.5625 C-6.535 1.5625 -7.195 1.5625 -7.875 1.5625 C-7.875 0.9025 -7.875 0.2425 -7.875 -0.4375 C-2.33653846 -1.79134615 -2.33653846 -1.79134615 0 0 Z " fill="#3DB583" transform="translate(124.875,46.4375)"/>
<path d="M0 0 C0.66 0 1.32 0 2 0 C2 2.97 2 5.94 2 9 C2.99 9 3.98 9 5 9 C5 9.66 5 10.32 5 11 C2.525 10.01 2.525 10.01 0 9 C-1.125 2.25 -1.125 2.25 0 0 Z " fill="#35B6D5" transform="translate(40,29)"/>
<path d="M0 0 C2.0625 0.4375 2.0625 0.4375 4 1 C2.875 3 2.875 3 1 5 C-2.0625 5.375 -2.0625 5.375 -5 5 C-5.66 4.34 -6.32 3.68 -7 3 C-5.5459375 2.5359375 -5.5459375 2.5359375 -4.0625 2.0625 C-1.15934208 1.30476658 -1.15934208 1.30476658 0 0 Z " fill="#45CFF1" transform="translate(129,158)"/>
<path d="M0 0 C3.63 0 7.26 0 11 0 C9 3 9 3 6.0625 3.8125 C3 4 3 4 0 2 C0 1.34 0 0.68 0 0 Z " fill="#37CFEF" transform="translate(15,52)"/>
<path d="M0 0 C0.66 0 1.32 0 2 0 C2 3.3 2 6.6 2 10 C1.01 9.67 0.02 9.34 -1 9 C-1.09765625 2.84765625 -1.09765625 2.84765625 -1 1 C-0.67 0.67 -0.34 0.34 0 0 Z " fill="#459DD7" transform="translate(113,29)"/>
<path d="M0 0 C0.33 0 0.66 0 1 0 C1.16798051 2.27073652 1.33434113 4.54159293 1.5 6.8125 C1.5928125 8.07707031 1.685625 9.34164062 1.78125 10.64453125 C1.91914781 12.75978517 2 14.88025592 2 17 C0.68 17 -0.64 17 -2 17 C-2 16.01 -2 15.02 -2 14 C-1.34 14 -0.68 14 0 14 C0 9.38 0 4.76 0 0 Z " fill="#C63F3B" transform="translate(157,49)"/>
<path d="M0 0 C0.66 0 1.32 0 2 0 C2 0.66 2 1.32 2 2 C3.65 1.34 5.3 0.68 7 0 C6.67 1.98 6.34 3.96 6 6 C4.68 6 3.36 6 2 6 C0 3 0 3 0 0 Z " fill="#35D7F5" transform="translate(60,131)"/>
<path d="M0 0 C0 1.65 0 3.3 0 5 C-1.65 5 -3.3 5 -5 5 C-5 4.34 -5 3.68 -5 3 C-5.99 2.67 -6.98 2.34 -8 2 C-4.77208445 -0.1519437 -3.71599191 -0.20086443 0 0 Z " fill="#40CFED" transform="translate(48,105)"/>
<path d="M0 0 C0.99 0.33 1.98 0.66 3 1 C1.71034824 2.37562854 0.37310707 3.70766393 -1 5 C-1.66 5 -2.32 5 -3 5 C-3 5.99 -3 6.98 -3 8 C-3.66 8 -4.32 8 -5 8 C-5 6.35 -5 4.7 -5 3 C-4.34 2.67 -3.68 2.34 -3 2 C-2.34 2.33 -1.68 2.66 -1 3 C-0.67 2.01 -0.34 1.02 0 0 Z " fill="#C1F8FF" transform="translate(58,107)"/>
<path d="M0 0 C2.31 0.33 4.62 0.66 7 1 C6.34 2.32 5.68 3.64 5 5 C3.35 5 1.7 5 0 5 C0 3.35 0 1.7 0 0 Z " fill="#21D7FB" transform="translate(167,101)"/>
<path d="M0 0 C3.3 0 6.6 0 10 0 C10 1.98 10 3.96 10 6 C9.34 5.67 8.68 5.34 8 5 C8 4.34 8 3.68 8 3 C6.68 3 5.36 3 4 3 C1.75 2 1.75 2 0 1 C0 0.67 0 0.34 0 0 Z " fill="#C6F7FD" transform="translate(133,164)"/>
<path d="M0 0 C2 2 2 2 2 5 C1.01 5 0.02 5 -1 5 C-1 5.66 -1 6.32 -1 7 C-2.32 7.33 -3.64 7.66 -5 8 C-5.33 7.34 -5.66 6.68 -6 6 C-5.67 5.34 -5.34 4.68 -5 4 C-4.34 3.855625 -3.68 3.71125 -3 3.5625 C-2.01 3.2840625 -2.01 3.2840625 -1 3 C-0.67 2.01 -0.34 1.02 0 0 Z " fill="#27DBFB" transform="translate(218,129)"/>
<path d="M0 0 C1.98 0 3.96 0 6 0 C5.01 0.66 4.02 1.32 3 2 C3.99 2.66 4.98 3.32 6 4 C5.67 4.66 5.34 5.32 5 6 C3.68 5.34 2.36 4.68 1 4 C1 4.66 1 5.32 1 6 C0.34 6 -0.32 6 -1 6 C-0.67 4.02 -0.34 2.04 0 0 Z " fill="#3BDAF5" transform="translate(61,123)"/>
<path d="M0 0 C2.4375 0.75 2.4375 0.75 5 2 C5.8125 4.125 5.8125 4.125 6 6 C3.03824877 5.38722388 1.61941217 4.74627478 -1 3 C-0.67 2.01 -0.34 1.02 0 0 Z " fill="#20D5FA" transform="translate(207,121)"/>
<path d="M0 0 C0.99 0.33 1.98 0.66 3 1 C3.33 2.65 3.66 4.3 4 6 C4.99 6.33 5.98 6.66 7 7 C5.68 7.33 4.36 7.66 3 8 C0.37613513 4.93882432 0 4.26826873 0 0 Z " fill="#1AA86C" transform="translate(108,57)"/>
<path d="M0 0 C0.598125 0.20625 1.19625 0.4125 1.8125 0.625 C1.8125 1.285 1.8125 1.945 1.8125 2.625 C0.1625 2.625 -1.4875 2.625 -3.1875 2.625 C-3.5175 4.605 -3.8475 6.585 -4.1875 8.625 C-4.5175 8.625 -4.8475 8.625 -5.1875 8.625 C-5.375 5.25 -5.375 5.25 -5.1875 1.625 C-2.1875 -0.375 -2.1875 -0.375 0 0 Z " fill="#29CFE7" transform="translate(137.1875,28.375)"/>
<path d="M0 0 C0.66 0.66 1.32 1.32 2 2 C4.66954041 4.36499354 4.66954041 4.36499354 8 5 C7.34 6.32 6.68 7.64 6 9 C3 7.3125 3 7.3125 0 5 C-0.375 2.25 -0.375 2.25 0 0 Z " fill="#82EBFA" transform="translate(216,117)"/>
<path d="M0 0 C2.475 0.495 2.475 0.495 5 1 C4.34 2.98 3.68 4.96 3 7 C2.01 6.34 1.02 5.68 0 5 C0.66 5 1.32 5 2 5 C1.34 3.35 0.68 1.7 0 0 Z " fill="#30D7F4" transform="translate(155,154)"/>
<path d="M0 0 C1.1875 1.6875 1.1875 1.6875 2 4 C0.9375 6.6875 0.9375 6.6875 -1 9 C-3.6875 9.8125 -3.6875 9.8125 -6 10 C-4.33333333 8.33333333 -2.66666667 6.66666667 -1 5 C-0.35232207 2.42938689 -0.35232207 2.42938689 0 0 Z " fill="#C6EBEF" transform="translate(238,126)"/>
<path d="M0 0 C0 0.99 0 1.98 0 3 C-3.4352048 5.29013653 -4.985331 5.17842973 -9 5 C-7.694761 2.38952199 -6.64173426 2.31933577 -3.9375 1.375 C-3.20402344 1.11460938 -2.47054687 0.85421875 -1.71484375 0.5859375 C-1.14894531 0.39257812 -0.58304688 0.19921875 0 0 Z " fill="#A3E9FB" transform="translate(52,118)"/>
<path d="M0 0 C0.99 0.33 1.98 0.66 3 1 C2 4 2 4 -1 6 C-1.99 6 -2.98 6 -4 6 C-3.67 4.68 -3.34 3.36 -3 2 C-2.34 2 -1.68 2 -1 2 C-0.67 1.34 -0.34 0.68 0 0 Z " fill="#BCF1FB" transform="translate(163,76)"/>
<path d="M0 0 C1.32 0 2.64 0 4 0 C3.67 2.64 3.34 5.28 3 8 C0.9375 5.6875 0.9375 5.6875 -1 3 C-0.67 2.01 -0.34 1.02 0 0 Z " fill="#23D3FA" transform="translate(48,105)"/>
<path d="M0 0 C0.66 0.33 1.32 0.66 2 1 C2 2.98 2 4.96 2 7 C1.01 7.495 1.01 7.495 0 8 C0 7.34 0 6.68 0 6 C-0.66 6 -1.32 6 -2 6 C-1.49396008 3.83125748 -1.00016187 2.00032373 0 0 Z " fill="#44C7E9" transform="translate(265,45)"/>
<path d="M0 0 C0.99 0 1.98 0 3 0 C2.88637738 1.4800841 2.75877092 2.95910074 2.625 4.4375 C2.52058594 5.67306641 2.52058594 5.67306641 2.4140625 6.93359375 C2.27742187 7.61550781 2.14078125 8.29742187 2 9 C1.01 9.495 1.01 9.495 0 10 C0 6.7 0 3.4 0 0 Z " fill="#48A2C7" transform="translate(175,29)"/>
<path d="M0 0 C0.66 0 1.32 0 2 0 C2 3.3 2 6.6 2 10 C1.34 10 0.68 10 0 10 C0 6.7 0 3.4 0 0 Z " fill="#4FA5CE" transform="translate(225,29)"/>
<path d="M0 0 C0.66 0 1.32 0 2 0 C2 2.64 2 5.28 2 8 C1.01 7.67 0.02 7.34 -1 7 C-0.67 4.69 -0.34 2.38 0 0 Z " fill="#57BDE6" transform="translate(60,29)"/>
<path d="M0 0 C1.32 0.33 2.64 0.66 4 1 C4 1.66 4 2.32 4 3 C3.67 3.33 3.34 3.66 3 4 C3.33 4.66 3.66 5.32 4 6 C2.68 6 1.36 6 0 6 C0 4.02 0 2.04 0 0 Z " fill="#2ECDEE" transform="translate(213,28)"/>
<path d="M0 0 C0.33 0 0.66 0 1 0 C1 1.65 1 3.3 1 5 C1.66 5 2.32 5 3 5 C3.33 3.68 3.66 2.36 4 1 C5.125 5.75 5.125 5.75 4 8 C2.68 7.34 1.36 6.68 0 6 C0 4.02 0 2.04 0 0 Z " fill="#47CCE6" transform="translate(209,127)"/>
<path d="M0 0 C2.64 0 5.28 0 8 0 C6.68 1.32 5.36 2.64 4 4 C2.68 3.34 1.36 2.68 0 2 C0 1.34 0 0.68 0 0 Z " fill="#44B2D5" transform="translate(163,29)"/>
<path d="M0 0 C1.88391785 3.26545761 2.49287967 6.28111761 3 10 C0 8 0 8 -0.75 4.4375 C-0.8325 3.303125 -0.915 2.16875 -1 1 C-0.67 0.67 -0.34 0.34 0 0 Z " fill="#99EBFF" transform="translate(143,153)"/>
<path d="M0 0 C-0.33 0.99 -0.66 1.98 -1 3 C-2.98 3 -4.96 3 -7 3 C-7 2.34 -7 1.68 -7 1 C-3.375 -1.125 -3.375 -1.125 0 0 Z " fill="#2BDCF6" transform="translate(50,114)"/>
<path d="M0 0 C1.67542976 0.28604898 3.34385343 0.61781233 5 1 C5.33 1.99 5.66 2.98 6 4 C5.01 4.33 4.02 4.66 3 5 C1.68 3.68 0.36 2.36 -1 1 C-0.67 0.67 -0.34 0.34 0 0 Z " fill="#1FD6F7" transform="translate(198,112)"/>
<path d="M0 0 C5.94 0.99 5.94 0.99 12 2 C8 4 8 4 5 4 C5 3.34 5 2.68 5 2 C3.35 1.67 1.7 1.34 0 1 C0 0.67 0 0.34 0 0 Z " fill="#C3EAEF" transform="translate(123,79)"/>
<path d="M0 0 C3.875 4.75 3.875 4.75 5 7 C4.67 7.66 4.34 8.32 4 9 C3.34 9 2.68 9 2 9 C2 7.35 2 5.7 2 4 C1.01 3.67 0.02 3.34 -1 3 C-0.67 2.01 -0.34 1.02 0 0 Z " fill="#40D1EB" transform="translate(78,72)"/>
<path d="M0 0 C1.5 1.0625 1.5 1.0625 3 3 C3.1875 6.6875 3.1875 6.6875 3 10 C-0.00617269 6.99382731 0.40414684 4.17618402 0 0 Z " fill="#3FD1EE" transform="translate(64,51)"/>
<path d="M0 0 C0.66 0 1.32 0 2 0 C2.1875 2.8125 2.1875 2.8125 2 6 C1.01 6.99 0.02 7.98 -1 9 C-0.67 6.03 -0.34 3.06 0 0 Z " fill="#3FCEE8" transform="translate(210,46)"/>
<path d="M0 0 C0 0.66 0 1.32 0 2 C-0.66 2 -1.32 2 -2 2 C-2 3.32 -2 4.64 -2 6 C-2.66 6 -3.32 6 -4 6 C-4 5.34 -4 4.68 -4 4 C-4.66 3.67 -5.32 3.34 -6 3 C-3.375 0 -3.375 0 0 0 Z " fill="#2DD6F7" transform="translate(18,45)"/>
<path d="M0 0 C0.66 0.33 1.32 0.66 2 1 C1.74438677 3.3431213 1.40729228 5.67843403 1 8 C0.01 8.495 0.01 8.495 -1 9 C-0.67 6.03 -0.34 3.06 0 0 Z " fill="#4BD1ED" transform="translate(239,108)"/>
<path d="M0 0 C0.99 0.33 1.98 0.66 3 1 C3 1.66 3 2.32 3 3 C3.66 3.33 4.32 3.66 5 4 C1.23375329 5.25541557 -0.37188934 4.37061958 -4 3 C-2.1875 1.4375 -2.1875 1.4375 0 0 Z " fill="#21DAFD" transform="translate(201,75)"/>
<path d="M0 0 C1.98 0.99 1.98 0.99 4 2 C4 2.66 4 3.32 4 4 C3.34 4 2.68 4 2 4 C2 3.34 2 2.68 2 2 C1.34 2 0.68 2 0 2 C0 1.34 0 0.68 0 0 Z " fill="#FFFFFF" transform="translate(186,39)"/>
<path d="M0 0 C0.99 1.32 1.98 2.64 3 4 C2.01 4.33 1.02 4.66 0 5 C0 3.35 0 1.7 0 0 Z " fill="#BFFFFF" transform="translate(193,34)"/>
<path d="M0 0 C0.66 0 1.32 0 2 0 C2 0.66 2 1.32 2 2 C1.34 2 0.68 2 0 2 C0 1.34 0 0.68 0 0 Z " fill="#00FFFF" transform="translate(215,129)"/>
<path d="" fill="#55FFFF" transform="translate(0,0)"/>
<path d="M0 0 C2 1 2 1 2 1 Z " fill="#00FFFF" transform="translate(234,112)"/>
<path d="" fill="#40FFFF" transform="translate(0,0)"/>
<path d="M0 0 C2 1 2 1 2 1 Z " fill="#7FFFFF" transform="translate(55,40)"/>
<path d="" fill="#00FFFF" transform="translate(0,0)"/>
<path d="" fill="#00FFFF" transform="translate(0,0)"/>
</svg>
